<?xml version="1.0" encoding="UTF-8" standalone="no"?>
<!-- Created with Inkscape (http://www.inkscape.org/) -->

<svg
   xmlns:dc="http://purl.org/dc/elements/1.1/"
   xmlns:cc="http://creativecommons.org/ns#"
   xmlns:rdf="http://www.w3.org/1999/02/22-rdf-syntax-ns#"
   xmlns:svg="http://www.w3.org/2000/svg"
   xmlns="http://www.w3.org/2000/svg"
   xmlns:inkscape="http://www.inkscape.org/namespaces/inkscape"
   version="1.1"
   width="322.28751"
   height="370"
   id="svg2"
   xml:space="preserve"><metadata
     id="metadata8"><rdf:RDF><cc:Work
         rdf:about=""><dc:format>image/svg+xml</dc:format><dc:type
           rdf:resource="http://purl.org/dc/dcmitype/StillImage" /></cc:Work></rdf:RDF></metadata><defs
     id="defs6" /><g
     transform="matrix(1.25,0,0,-1.25,0,370)"
     id="g10"><g
       transform="scale(0.1,0.1)"
       id="g12"><path
         d="m 2366.1,2331.64 c 0,30.87 -22.02,57.73 -52.38,63.88 -4.67,0.94 -474.53,94.75 -1026.79,94.75 -554.563,0 -1030.586,-93.79 -1035.325,-94.72 -30.468,-6.07 -52.578,-32.94 -52.605,-63.89 L 198.609,1177.54 C 198.609,462.738 908.949,130.25 1214.31,20.4883 L 1260.23,3.89062 C 1267.4,1.30859 1274.92,0 1282.51,0 c 7.61,0 15.13,1.30859 22.27,3.89062 l 46,16.59768 c 249.85,90.0237 427.78,202.8517 533.06,281.6597 320.25,239.954 482.64,534.454 482.64,875.402 l -0.38,1154.09"
         inkscape:connector-curvature="0"
         id="path14"
         style="fill:#ffffff;fill-opacity:1;fill-rule:nonzero;stroke:none" /><path
         d="m 2339.57,2331.64 c 0,16.7 -11.83,31.06 -28.29,34.4 -4.7,0.92 -472.44,94.15 -1024.32,94.15 -551.749,0 -1028.245,-93.2 -1032.972,-94.12 -16.543,-3.3 -28.437,-17.71 -28.437,-34.43 l -0.41,-1154.1 C 225.141,481.82 924.02,156.391 1224.42,48.7695 l 46.05,-16.5781 c 3.91,-1.3906 7.97,-2.1133 12.04,-2.1133 4.1,0 8.15,0.7227 12.06,2.1133 l 46.13,16.5781 c 247.21,88.7505 423.02,199.8715 527.02,277.4415 313.34,233.949 472.21,520.367 472.21,851.329 l -0.36,1154.1"
         inkscape:connector-curvature="0"
         id="path16"
         style="fill:#612490;fill-opacity:1;fill-rule:nonzero;stroke:none" /><path
         d="m 331.586,2378.54 c 0,0 470.852,86.06 946.564,86.06 475.71,0 1001.77,-92.56 1001.77,-92.56 l 25.97,-14.59 -16.23,-9.75 c 0,0 -500.06,89.29 -1011.51,89.29 -511.447,0 -946.564,-81.17 -946.564,-81.17 l 0,22.72"
         inkscape:connector-curvature="0"
         id="path18"
         style="fill:#231f20;fill-opacity:1;fill-rule:nonzero;stroke:none" /><path
         d="m 1286.36,2445.08 c 544.53,0 1028.52,-98.53 1028.52,-98.53 l 0.36,-1162.7 C 2315.24,856.602 2157.59,574.629 1854,346.441 1752.22,269.961 1580.85,161 1339.76,73.8516 l -57.7,-20.8828 -57.59,20.8828 C 940.387,176.301 248.91,495.309 248.91,1183.85 l 0.402,1162.8 c 0,0 492.754,98.43 1037.048,98.43"
         inkscape:connector-curvature="0"
         id="path20"
         style="fill:#231f20;fill-opacity:1;fill-rule:nonzero;stroke:none" /><path
         d="m 286.695,2314.82 -0.383,-1132.13 c 0,-660.479 664.954,-971.749 950.878,-1074.881 l 0,0 44.89,-16.2504 44.99,16.2504 c 237.04,85.703 405.15,192.703 504.47,267.332 l 0,0 c 296.11,222.597 446.29,494.257 446.29,807.549 l 0,0 -0.35,1132.13 c 0,0 -450.65,91.68 -991.12,91.68 l 0,0 c -540.348,0 -999.665,-91.68 -999.665,-91.68"
         inkscape:connector-curvature="0"
         id="path22"
         style="fill:#deddde;fill-opacity:1;fill-rule:nonzero;stroke:none" /><path
         d="m 1729.62,678.211 -458.41,716.459 294.6,-798.201 -340.78,779.431 166.2,-834.509 -214.78,823.139 33.75,-850.21 -83.49,846.64 -99.58,-845.05 49.92,849.31 L 846.586,546.148 1028.63,1377.17 673.012,604.289 982.691,1396.58 510.641,688.871 940.355,1422.93 370.797,805.719 l -0.293,0.652 532.129,649.219 -595.274,-470.809 -1.867,8.66 565.012,500.329 -584.043,-328.38 c -0.098,5.23 -0.149,10.47 -0.149,15.72 L 844.73,1536.49 286.363,1329 l 0,17.7 539.598,236.02 -539.559,-108.37 0.028,19.17 528.215,137.8 -528.184,-21.47 0,19.18 524.578,52.05 -524.539,62.84 0.02,19.42 528.757,-32.51 -528.73,149.03 0,19.4 540.676,-119.98 -540.637,248.83 0,17.12 560.031,-219.96 -559.953,374.01 0,13.81 586.281,-345.46 -498.183,460.53 13.242,2.2 517.566,-424.98 -353.965,449.01 19.59,2.56 372.52,-419.4 -243.399,434.58 22.969,2.41 263.106,-411.2 -155.489,421.34 24.797,2.04 176.871,-404.58 -81.91,411.52 c 8.496,0.52 17.07,1.05 25.692,1.57 l 104.808,-401.76 -16.12,406.39 c 8.65,0.39 17.34,0.75 26.04,1.09 l 39.81,-403.9 47.91,406.62 c 8.63,0.21 17.27,0.37 25.95,0.53 l -24.18,-411.38 115.97,412.12 c 8.46,0 16.9,-0.05 25.33,-0.1 l -92.86,-423.98 194.29,422.29 23.99,-0.68 -172.37,-441.02 290.82,435.99 21.48,-1.19 -269.94,-461.15 416.06,450.87 16.79,-1.45 -395.15,-482.1 585.77,462.6 8.11,-0.97 -561.76,-499.79 741.63,416.1 -715.84,-458.81 797.53,294.83 -778.75,-341.06 833.76,166.32 -822.44,-214.93 834.67,33.17 -831.08,-82.95 831.13,-98.13 -835.35,48.4 818.34,-230.66 -830.32,182.2 772.22,-355.93 -791.58,309.94 707.08,-472.46 -733.42,430.08 624.52,-577.331 -657.15,539.621 526.62,-668.031 -564.77,635.841 415.72,-742.259"
         inkscape:connector-curvature="0"
         id="path24"
         style="fill:#ffffff;fill-opacity:1;fill-rule:nonzero;stroke:none" /><path
         d="m 2280.17,2314.82 0.08,-229.55 c -78.43,-44.67 -134.61,-92.61 -171.31,-128.55 -142.5,-139.73 -214.76,-310.24 -214.76,-506.9 l 0.15,-667.25 -59.2,0 0.21,780.27 c 0,475.55 -367.05,699.68 -524.88,773.93 l -24.78,11.71 -24.81,-11.71 C 1130.02,2275.06 1037.23,2198.01 982.398,2144.3 818.941,1984.02 736.059,1788.42 736.059,1562.84 l 0.187,-780.238 -80.703,0 0.156,667.218 c 0,340.43 -218.429,533.07 -371.758,626.92 l 0.067,238.08 c 0,0 423.379,97.07 1002.352,97.07 606.75,0 993.81,-97.07 993.81,-97.07"
         inkscape:connector-curvature="0"
         id="path26"
         style="fill:#231f20;fill-opacity:1;fill-rule:nonzero;stroke:none" /><path
         d="m 1409.02,2374.31 c 193.73,-115.99 344.31,-322.44 451.7,-619.32 -65.11,311.39 -200.74,517.84 -406.84,619.32 l -44.86,0"
         inkscape:connector-curvature="0"
         id="path28"
         style="fill:#ffffff;fill-opacity:1;fill-rule:evenodd;stroke:none" /><path
         d="m 944.008,688.461 81.512,-59.852 -315.321,0 182.239,-38.148 -310.188,11.008 223.195,-87.02 -206.679,10.66 242.078,-84.23 -209.129,14.141 C 556.148,522.441 486.344,599.918 429.379,688.461 l 514.629,0"
         inkscape:connector-curvature="0"
         id="path30"
         style="fill:#231f20;fill-opacity:1;fill-rule:nonzero;stroke:none" /><path
         d="m 1198.82,2361.72 c -81.97,-34.2 -175.27,-105.38 -279.859,-213.66 70.547,100.17 149.629,172.1 237.229,215.75 l 42.63,-2.09"
         inkscape:connector-curvature="0"
         id="path32"
         style="fill:#ffffff;fill-opacity:1;fill-rule:evenodd;stroke:none" /><path
         d="m 2277.54,2140.56 c -53.53,-45.59 -282.37,-228.73 -383.9,-421.42 l 76.32,203.42 -49.42,28.41 103.26,25.45 -94.25,34.39 137.63,16.43 -100.21,38.91 168.31,5.34 c -9.65,19.27 -78.76,49.82 -142.89,66.48 72.87,5.5 135.95,3.74 189.18,-5.29 l -126.38,57.64 173.94,-5.97 c -6.88,20.63 -74.59,47.58 -136.52,74.77 l 184.89,15.94 0.04,-134.5"
         inkscape:connector-curvature="0"
         id="path34"
         style="fill:#ffffff;fill-opacity:1;fill-rule:nonzero;stroke:none" /><path
         d="M 286.664,2165.95 C 423.551,2122.45 577.652,1942.43 684.254,1659.3 560.66,1905.2 404.828,2059 286.637,2102.48 l 0.027,63.47"
         inkscape:connector-curvature="0"
         id="path36"
         style="fill:#ffffff;fill-opacity:1;fill-rule:nonzero;stroke:none" /><path
         d="m 1731.27,433.23 c 0,134.719 60.9,244.2 136.54,246.668 64.13,13.872 162.9,21.282 267.15,13.262 -67.9,-115.289 -174.51,-223.82 -303.42,-320.762 -23.62,-17.707 -49.21,-38.418 -80.56,-59.097 -9.67,33.73 -19.71,80.437 -19.71,119.929"
         inkscape:connector-curvature="0"
         id="path38"
         style="fill:#231f20;fill-opacity:1;fill-rule:nonzero;stroke:none" /><path
         d="m 1794.59,813.379 c 0,134.723 60.91,244.181 136.57,246.661 78.31,16.93 205.92,21.86 339.15,3.17 -25.22,-196.741 -80.18,-320.429 -222,-486.851 -41.03,-3.66 -110.01,-9.711 -114.55,-9.711 -76.85,0 -139.17,110.461 -139.17,246.731"
         inkscape:connector-curvature="0"
         id="path40"
         style="fill:#231f20;fill-opacity:1;fill-rule:nonzero;stroke:none" /><path
         d="m 1616.3,587.531 c 0,134.707 60.91,244.207 136.57,246.68 99.5,21.508 272.97,26.789 449.2,-16.09 -72.27,-163.691 -196.1,-311.851 -370.53,-442.98 -13.44,-10.102 -28.13,-20.789 -44.07,-31.922 -11.36,-1.008 -27.86,-2.379 -32,-2.379 -76.84,0 -139.17,110.449 -139.17,246.691"
         inkscape:connector-curvature="0"
         id="path42"
         style="fill:#231f20;fill-opacity:1;fill-rule:nonzero;stroke:none" /><path
         d="m 1911.02,1022.62 c -36.91,-56.858 -58.88,-113.499 -65.94,-169.999 l -16.28,-2.109 c 6.57,70.289 33.7,136.918 82.22,172.108"
         inkscape:connector-curvature="0"
         id="path44"
         style="fill:#ffffff;fill-opacity:1;fill-rule:evenodd;stroke:none" /><path
         d="m 1863.94,1012.2 c 74.68,48.48 139.39,-3.45 172.02,-157.11 l 43.63,0 c -47.68,193.04 -144.52,227.37 -215.65,157.11"
         inkscape:connector-curvature="0"
         id="path46"
         style="fill:#ffffff;fill-opacity:1;fill-rule:evenodd;stroke:none" /><path
         d="m 1297.64,904.262 c 0,146.208 118.51,264.728 264.74,264.728 146.22,0 264.72,-118.52 264.72,-264.728 0,-146.211 -118.5,-264.75 -264.72,-264.75 -146.23,0 -264.74,118.539 -264.74,264.75"
         inkscape:connector-curvature="0"
         id="path48"
         style="fill:#231f20;fill-opacity:1;fill-rule:nonzero;stroke:none" /><path
         d="m 1332.11,917.891 438.69,0 0,-18.61 -438.69,0 0,18.61"
         inkscape:connector-curvature="0"
         id="path50"
         style="fill:#ffffff;fill-opacity:1;fill-rule:nonzero;stroke:none" /><path
         d="m 1528.77,1140.96 c -123.12,-28.47 -164.4,-83.56 -195.91,-196.198 l 249.59,-3.321 -207.94,22.911 161.87,5.769 -150.53,25.488 155.52,10.781 -144.89,21.78 147.36,15.6 -118.8,24.34 145,16.71 -103.13,17.19 125.45,30.26 -63.59,8.69"
         inkscape:connector-curvature="0"
         id="path52"
         style="fill:#ffffff;fill-opacity:1;fill-rule:evenodd;stroke:none" /><path
         d="m 1348.04,833.078 c 53.58,-120.039 147.94,-169.508 283.07,-148.348 -106.67,5.079 -195.26,53.7 -247.32,146.68 l -35.75,1.668"
         inkscape:connector-curvature="0"
         id="path54"
         style="fill:#ffffff;fill-opacity:1;fill-rule:evenodd;stroke:none" /><path
         d="m 1337.49,886.949 0,-37.961 304.9,2.012 -264.05,13.84 92.9,9.371 -133.75,12.738"
         inkscape:connector-curvature="0"
         id="path56"
         style="fill:#ffffff;fill-opacity:1;fill-rule:evenodd;stroke:none" /><path
         d="m 1592.45,968.668 c 0,15.652 12.69,28.352 28.35,28.352 15.67,0 28.37,-12.7 28.37,-28.352 0,-15.668 -12.7,-28.379 -28.37,-28.379 -15.66,0 -28.35,12.711 -28.35,28.379"
         inkscape:connector-curvature="0"
         id="path58"
         style="fill:#ffffff;fill-opacity:1;fill-rule:nonzero;stroke:none" /><path
         d="m 1329.67,990.18 c -29.1,-81.649 -22.66,-147.399 19.36,-197.192 -32.94,52.723 -39.41,118.461 -19.36,197.192"
         inkscape:connector-curvature="0"
         id="path60"
         style="fill:#ffffff;fill-opacity:1;fill-rule:evenodd;stroke:none" /><path
         d="m 1909.64,886.539 c 0,19.961 8.87,36.16 19.84,36.16 10.94,0 19.81,-16.199 19.81,-36.16 0,-20 -8.87,-36.187 -19.81,-36.187 -10.97,0 -19.84,16.187 -19.84,36.187"
         inkscape:connector-curvature="0"
         id="path62"
         style="fill:#ffffff;fill-opacity:1;fill-rule:nonzero;stroke:none" /><path
         d="m 1732.73,796.781 c -86.94,-133.89 -90.98,-266.742 -12.18,-398.59 -97.84,80.868 -97.03,319.411 12.18,398.59"
         inkscape:connector-curvature="0"
         id="path64"
         style="fill:#ffffff;fill-opacity:1;fill-rule:evenodd;stroke:none" /><path
         d="m 1675.3,606.828 0.84,-57.418 68.66,-17.832 -48.47,32.363 49.29,-9.722 -37.16,29.179 52.56,-2.457 -85.72,25.887"
         inkscape:connector-curvature="0"
         id="path66"
         style="fill:#ffffff;fill-opacity:1;fill-rule:evenodd;stroke:none" /><path
         d="m 1685.66,786.352 c 69.99,69.187 143.68,41.636 187.34,-106.922 l -28.17,-9.571 c -32.42,125.532 -85.5,164.34 -159.17,116.493"
         inkscape:connector-curvature="0"
         id="path68"
         style="fill:#ffffff;fill-opacity:1;fill-rule:evenodd;stroke:none" /><path
         d="m 1682.83,618.738 95.69,-15.078 6.9,11.129 -102.59,3.949"
         inkscape:connector-curvature="0"
         id="path70"
         style="fill:#ffffff;fill-opacity:1;fill-rule:evenodd;stroke:none" /><path
         d="m 1790.91,346.789 c -4.24,-2.937 -8.53,-5.949 -12.95,-8.98 -31.95,104.293 -9.97,246.902 69.71,304.679 -64.34,-99.129 -83.28,-197.679 -56.76,-295.699"
         inkscape:connector-curvature="0"
         id="path72"
         style="fill:#ffffff;fill-opacity:1;fill-rule:nonzero;stroke:none" /><path
         d="m 1797.79,464.43 95.68,-15.051 6.93,11.133 -102.61,3.918"
         inkscape:connector-curvature="0"
         id="path74"
         style="fill:#ffffff;fill-opacity:1;fill-rule:evenodd;stroke:none" /><path
         d="m 1790.27,452.52 85.72,-25.86 -52.55,2.418 37.13,-29.156 -49.29,9.726 34.13,-22.789 -5.72,-4.347 -48.59,12.629 -0.83,57.379"
         inkscape:connector-curvature="0"
         id="path76"
         style="fill:#ffffff;fill-opacity:1;fill-rule:nonzero;stroke:none" /><path
         d="m 544.801,904.262 c 0,146.208 118.504,264.728 264.707,264.728 146.238,0 264.732,-118.52 264.732,-264.728 0,-146.211 -118.494,-264.75 -264.732,-264.75 -146.203,0 -264.707,118.539 -264.707,264.75"
         inkscape:connector-curvature="0"
         id="path78"
         style="fill:#231f20;fill-opacity:1;fill-rule:nonzero;stroke:none" /><path
         d="m 579.262,917.891 438.658,0 0,-18.61 -438.658,0 0,18.61"
         inkscape:connector-curvature="0"
         id="path80"
         style="fill:#ffffff;fill-opacity:1;fill-rule:nonzero;stroke:none" /><path
         d="M 775.941,1140.96 C 652.77,1112.49 611.508,1057.4 580.004,944.762 l 249.57,-3.321 -207.91,22.911 161.867,5.769 -150.547,25.488 155.508,10.781 -144.863,21.78 147.363,15.6 -118.789,24.34 144.981,16.71 -103.125,17.19 125.449,30.26 -63.567,8.69"
         inkscape:connector-curvature="0"
         id="path82"
         style="fill:#ffffff;fill-opacity:1;fill-rule:evenodd;stroke:none" /><path
         d="M 595.211,833.078 C 648.766,713.039 743.141,663.57 878.246,684.73 c -106.66,5.079 -195.234,53.7 -247.293,146.68 l -35.742,1.668"
         inkscape:connector-curvature="0"
         id="path84"
         style="fill:#ffffff;fill-opacity:1;fill-rule:evenodd;stroke:none" /><path
         d="m 584.633,886.949 0,-37.961 304.875,2.012 -264.016,13.84 92.863,9.371 -133.722,12.738"
         inkscape:connector-curvature="0"
         id="path86"
         style="fill:#ffffff;fill-opacity:1;fill-rule:evenodd;stroke:none" /><path
         d="m 839.594,968.668 c 0,15.652 12.687,28.352 28.351,28.352 15.672,0 28.34,-12.7 28.34,-28.352 0,-15.668 -12.668,-28.379 -28.34,-28.379 -15.664,0 -28.351,12.711 -28.351,28.379"
         inkscape:connector-curvature="0"
         id="path88"
         style="fill:#ffffff;fill-opacity:1;fill-rule:nonzero;stroke:none" /><path
         d="M 576.801,990.18 C 547.719,908.531 554.164,842.781 596.188,792.988 563.246,845.711 556.773,911.449 576.801,990.18"
         inkscape:connector-curvature="0"
         id="path90"
         style="fill:#ffffff;fill-opacity:1;fill-rule:evenodd;stroke:none" /><path
         d="m 1756.62,325.309 -967.757,6.23 273.417,-49.41 -123.846,-2.109 187.846,-57.731 -102.25,0 189.92,-38.269 -59.84,-19.508 239.35,0 -109.26,32.797 201.09,20.812 -107.18,36.938 265.06,16.66 -27.81,27.82 141.26,25.77"
         inkscape:connector-curvature="0"
         id="path92"
         style="fill:#231f20;fill-opacity:1;fill-rule:evenodd;stroke:none" /><path
         d="m 1949.67,923.871 c 1.98,1.149 4.02,1.789 6.18,1.789 10.94,0 19.83,-16.191 19.83,-36.172 0,-19.976 -8.89,-36.207 -19.83,-36.207 -1.73,0 -3.45,0.449 -5.07,1.231 7.95,4.726 13.67,18.34 13.67,34.386 0,16.782 -6.27,30.891 -14.78,34.973"
         inkscape:connector-curvature="0"
         id="path94"
         style="fill:#ffffff;fill-opacity:1;fill-rule:nonzero;stroke:none" /><path
         d="m 1738.21,678.461 c 0,19.961 8.87,36.148 19.82,36.148 10.94,0 19.85,-16.187 19.85,-36.148 0,-19.981 -8.91,-36.172 -19.85,-36.172 -10.95,0 -19.82,16.191 -19.82,36.172"
         inkscape:connector-curvature="0"
         id="path96"
         style="fill:#ffffff;fill-opacity:1;fill-rule:nonzero;stroke:none" /><path
         d="m 1778.26,715.781 c 1.91,1.168 4,1.821 6.15,1.821 10.94,0 19.81,-16.192 19.81,-36.192 0,-19.961 -8.87,-36.16 -19.81,-36.16 -1.77,0 -3.46,0.398 -5.07,1.199 7.94,4.68 13.68,18.34 13.68,34.36 0,16.793 -6.27,30.89 -14.76,34.972"
         inkscape:connector-curvature="0"
         id="path98"
         style="fill:#ffffff;fill-opacity:1;fill-rule:nonzero;stroke:none" /><path
         d="m 1857.86,513.73 c 0,19.961 8.87,36.161 19.85,36.161 10.94,0 19.82,-16.2 19.82,-36.161 0,-19.96 -8.88,-36.191 -19.82,-36.191 -10.98,0 -19.85,16.231 -19.85,36.191"
         inkscape:connector-curvature="0"
         id="path100"
         style="fill:#ffffff;fill-opacity:1;fill-rule:nonzero;stroke:none" /><path
         d="m 1897.91,551.059 c 1.94,1.152 4.03,1.793 6.18,1.793 10.93,0 19.81,-16.211 19.81,-36.153 0,-20 -8.88,-36.211 -19.81,-36.211 -1.78,0 -3.46,0.453 -5.08,1.231 7.93,4.742 13.66,18.32 13.66,34.359 0,16.813 -6.27,30.91 -14.76,34.981"
         inkscape:connector-curvature="0"
         id="path102"
         style="fill:#ffffff;fill-opacity:1;fill-rule:nonzero;stroke:none" /><path
         d="m 1790.82,903.121 c 0,-19.371 -2.29,-38.223 -6.62,-56.301 l -31.53,-4.711 c 5.37,19.969 8.23,40.981 8.23,62.661 0,123.45 -92.89,225.23 -212.57,239.21 l 1.63,0 c 133.02,0 240.86,-107.81 240.86,-240.859"
         inkscape:connector-curvature="0"
         id="path104"
         style="fill:#ffffff;fill-opacity:1;fill-rule:nonzero;stroke:none" /><path
         d="m 1800.6,632.07 c 70.25,69.418 152.3,37.68 196.11,-112.379 -9.97,-10.261 -20.19,-20.429 -30.7,-30.531 -32.47,127.07 -91.41,190.918 -165.41,142.91 z m 371.26,124.098 -39.75,18.273 0,-40.339 -45.65,38.457 2.85,-37.5 -42.23,37.5 0,-50.387 -42.83,48.457 7.26,-52.231 -47.56,56.973 9.44,-60.762 c -16.26,42.051 -39.97,68.813 -71.15,80.309 13.73,-25.387 20.85,-56.77 21.41,-94.188 -20.06,64.399 -48.38,106.071 -85.03,125.032 93.76,14.929 216.8,8.027 358.39,-18.903 -7.82,-17.058 -16.21,-33.949 -25.15,-50.691 z m 82.3,217.422 -28.77,24.808 0,-50.41 -42.84,48.512 7.24,-52.301 -47.56,57.031 9.44,-60.812 c -16.25,42.062 -39.96,68.852 -71.15,80.302 13.72,-25.392 20.86,-56.751 21.42,-94.13 -20.05,64.371 -48.41,106.04 -85.03,125.01 69.91,11.12 155.14,10.66 251.63,-1.48 -3.69,-25.85 -8.51,-51.358 -14.38,-76.53 z M 2064.97,596.391 c -13.22,18.121 -29.84,37.597 -47.8,44.218 10.04,-18.55 22.04,-44.05 26.34,-69.847 -3.48,-4.043 -7.01,-8.043 -10.54,-12.032 -19.59,54.45 -46.27,95.59 -79.39,112.758 47.92,7.633 111.09,10.821 172.24,7.59 -18.6,-28.078 -38.85,-55.648 -60.85,-82.687"
         inkscape:connector-curvature="0"
         id="path106"
         style="fill:#ffffff;fill-opacity:1;fill-rule:nonzero;stroke:none" /><path
         d="m 1558.55,1764.49 c 23.53,7.9 31.87,-1.07 24.96,-26.84 22.68,-5.76 29.25,-31.47 19.73,-77.16 33.98,-10.56 -12.59,-212.85 -95.85,-420.24 l -19.74,19.75 -56.61,-8.3 c 41.01,-103.95 52.35,-257.52 34.01,-460.802 72.75,-132.027 105.37,-271.707 97.86,-419.007 20.48,-34.59 27.3,-67.903 20.45,-100 l -162.94,0 c -65.1,21.097 0,44.078 23.62,86.609 -92.78,-13.832 -177.34,-15.199 -214.8,3.898 -26.83,-12.046 -71.53,-12.5 -134.17,-1.359 14.89,-50.148 -24.07,-61.551 -116.812,-34.18 -70.215,-11.16 -113.156,-14.929 -176.867,15.211 -26.473,59.828 99.785,17.5 139.836,80.231 l -76.965,27.078 c 30.851,57.652 55.558,128.43 74.133,212.262 l -27.422,209.14 73.543,207.149 32.224,89.75 53.49,133.98 c -44.23,-23.24 -76.542,-48.31 -115.8,-79.98 -18.313,10.05 -40.801,31.93 -49.688,56.6 l -15.781,-23.47 c 0,0 -3.945,-31.84 -8.027,-37.36 -20.157,-22.94 -38.352,-42.41 -57.989,-50.63 -20.058,5.68 -8.859,26.64 14.676,42.65 19.805,30.78 -3.23,37.61 -10.644,36.6 -12.743,-6.83 -22.52,-7.75 -33.028,-9.78 -6.992,-40.66 -22,-61.88 -34.617,-49.92 -15.09,-26.78 -31.594,-24.65 -31.594,-7.37 l 34.758,86.7 104.988,81.76 c 31.184,36.13 75.774,64.02 133.816,83.7 l 49.93,69.48 -79.476,40.18 -76.035,122.12 44.519,76.64 -56.797,25.38 c 11.114,-9.64 14.336,-18.43 9.641,-26.39 -31.66,-19.9 -101.797,-12.18 -126.23,0 -13.411,8.25 -7.09,23.49 17.546,30.79 l 14.993,44.03 c -9.59,7.92 -13.067,20.24 -6.719,26.67 -11.172,6.27 -14.309,16.45 -7.617,26 -33.215,36.54 -42.188,52.79 -8.371,67.08 l -27.508,107.09 c -13.352,2.13 -17.59,12.54 -12.727,31.29 24.649,66.16 207.473,46.84 226.504,0 1.496,-14.71 -3.621,-23.49 -15.398,-26.32 l -34.453,-130.56 30.156,-20.44 39.648,-64.75 101.524,-125.1 80.99,-44.73 c 14.55,31.28 41.97,44.4 82.25,39.32 -21.44,26.02 -14.75,45.97 20.08,59.84 -3.8,8.68 -2.89,14.04 2.67,16.09 -4.33,9.68 -4.05,18.21 0.79,25.55 -26.13,37.62 10.85,27.34 41.08,56.59 -8.57,20.89 -6.27,35.39 6.94,43.48 41,76.83 143.69,80.4 216.73,-5.79 41.28,-8.99 52.39,-73.27 22.59,-130.21"
         inkscape:connector-curvature="0"
         id="path108"
         style="fill:#231f20;fill-opacity:1;fill-rule:nonzero;stroke:none" /><path
         d="m 989.594,1795.03 75.146,-89.74 c 66.08,-46.69 120.42,-73.79 162.98,-81.25 l 18.99,0 c 32.06,-21.85 52.44,-59.46 61.06,-112.89 l -70.81,78.1 9.75,-81.75 -50.11,106.79 0,-69.54 -50.62,82.42 4.87,-73.93 -57.39,114.81 7.28,-100.71 -61.03,128.17 0,-87.3 -13.41,76.89 -23.81,-75.66 -4.877,103.14 -75.136,-56.18 c 37,59.51 59.402,105.71 67.117,138.63"
         inkscape:connector-curvature="0"
         id="path110"
         style="fill:#ffffff;fill-opacity:1;fill-rule:evenodd;stroke:none" /><path
         d="m 1293.69,1630.6 66.26,-151.83 c 57.53,-39.92 103.01,-90.43 136.44,-151.5 27.53,126.89 25.29,216.94 -6.72,270.05 -9.15,12.91 -37.96,24.37 -86.37,34.39 23.79,-25.72 49.61,-66.34 77.42,-121.92 -42.83,52.19 -80.09,85.49 -111.83,99.83 l 19.84,-60.93 c -12.79,31.97 -44.46,59.26 -95.04,81.91"
         inkscape:connector-curvature="0"
         id="path112"
         style="fill:#ffffff;fill-opacity:1;fill-rule:evenodd;stroke:none" /><path
         d="m 1569.09,1737.45 c -29.23,-38.22 -95.82,-67.88 -199.84,-89 99.08,-3.17 167.91,0.87 206.48,12.16 12.92,23.7 10.71,49.33 -6.64,76.84"
         inkscape:connector-curvature="0"
         id="path114"
         style="fill:#ffffff;fill-opacity:1;fill-rule:evenodd;stroke:none" /><path
         d="m 1483.76,1623.72 c 47.88,-5.16 82.71,0.87 104.57,18.07 4.51,-44.74 -14.94,-140.02 -58.36,-285.84 l 17.34,183.5 -15.14,-15.09 7,69.44 -13.65,-18.5 c -3.39,21.43 -17.32,37.6 -41.76,48.42"
         inkscape:connector-curvature="0"
         id="path116"
         style="fill:#ffffff;fill-opacity:1;fill-rule:evenodd;stroke:none" /><path
         d="m 1508.53,1907.29 c -71.85,63.74 -138.87,54.29 -186.29,-16.5 -11.44,-2.76 -11.86,-16.28 -0.78,-35.9 0,0 -35.96,-24 -52.72,-32.13 -0.87,-5.84 2.38,-14.91 10.67,-21.04 5.58,13.18 19.88,-8.44 26.54,-9.74 6.22,10.31 -12.61,16.01 -25.26,26.48 l 49.93,33.98 c -3.3,8.25 -17.18,21.98 0.55,21.75 13.96,67.47 101.4,85.46 177.36,33.1"
         inkscape:connector-curvature="0"
         id="path118"
         style="fill:#ffffff;fill-opacity:1;fill-rule:evenodd;stroke:none" /><path
         d="m 969.43,1826.07 -37.844,65.09 -87.723,53.23 c -22.402,-7.69 -3.828,-30.91 42.676,-55.02 -2.48,-7.05 -26.25,-9.12 -71.23,-6.19 l -36.946,30.89 c -15.203,6.72 -17.988,-7.41 -9.746,-18.31 l 27.481,-27.43 45.761,-18.95 -26.875,1.23 -20.711,9.74 c -2.824,-8.63 1.446,-16.37 12.821,-23.16 l 34.777,-17.73 -37.226,10.99 c -7.942,-3.76 -5.911,-9.86 6.074,-18.31 l 116.629,-43.99 42.082,57.92"
         inkscape:connector-curvature="0"
         id="path120"
         style="fill:#ffffff;fill-opacity:1;fill-rule:evenodd;stroke:none" /><path
         d="m 983.051,1404.42 c -25.391,-1.63 -65.418,-9.77 -95.313,-55.01 23.508,-9.23 52.297,-45.28 77.149,-98.49 l -25.457,78.95 c 19.754,-2.76 32.468,-17.27 35.234,-37.06 8.777,11.56 9.598,28.15 2.52,49.79 12.644,-1.8 20.957,-10.14 25.006,-25 5.11,35.96 -1.28,64.88 -19.139,86.82"
         inkscape:connector-curvature="0"
         id="path122"
         style="fill:#ffffff;fill-opacity:1;fill-rule:evenodd;stroke:none" /><path
         d="m 872.691,1337.97 -104.316,-75.82 -35.891,-83.7 c 4.629,-9.23 20.149,18.02 46.465,81.69 38.391,30.52 69.27,50.47 107.59,67.87 l -13.848,9.96"
         inkscape:connector-curvature="0"
         id="path124"
         style="fill:#ffffff;fill-opacity:1;fill-rule:evenodd;stroke:none" /><path
         d="m 949.898,2076.68 c -80.324,39.47 -178.945,27.02 -207.578,-14.94 -3.379,-10.01 -0.226,-14.07 9.453,-12.25 26.368,35.55 128.887,35.41 192.149,3.34 10.625,8.03 14.746,16.38 5.976,23.85"
         inkscape:connector-curvature="0"
         id="path126"
         style="fill:#ffffff;fill-opacity:1;fill-rule:evenodd;stroke:none" /><path
         d="m 766.656,2047.27 26.016,-121.18 46.609,-27.85 -38.25,52.18 23.242,-2.2 -19.335,26.55 34.343,-11.67 -36.043,34.91 39.403,2.79 -47.168,26.03 42.715,7.78 c -20.126,6.4 -33.993,12.48 -41.61,18.22 l 55.938,15.03 c -41.309,4.3 -69.922,-2.57 -85.86,-20.59"
         inkscape:connector-curvature="0"
         id="path128"
         style="fill:#ffffff;fill-opacity:1;fill-rule:evenodd;stroke:none" /><path
         d="m 900.25,2029.04 c 0,11.92 5.945,21.58 13.27,21.58 7.363,0 13.312,-9.66 13.312,-21.58 0,-11.91 -5.949,-21.57 -13.312,-21.57 -7.325,0 -13.27,9.66 -13.27,21.57"
         inkscape:connector-curvature="0"
         id="path130"
         style="fill:#ffffff;fill-opacity:1;fill-rule:nonzero;stroke:none" /><path
         d="m 857.535,1976.19 c 0,12.36 7.324,22.38 16.348,22.38 9.012,0 16.328,-10.02 16.328,-22.38 0,-12.39 -7.316,-22.41 -16.328,-22.41 -9.024,0 -16.348,10.02 -16.348,22.41"
         inkscape:connector-curvature="0"
         id="path132"
         style="fill:#ffffff;fill-opacity:1;fill-rule:nonzero;stroke:none" /><path
         d="m 807.152,1801.07 -12.273,-33.44 c -19.844,-8.95 -26.699,-16.53 -20.637,-22.69 16.719,-6.4 50.031,-14.46 94.317,-6.51 -38.797,4.68 -63.641,10.19 -71.59,14.78 l 21.414,38.13 -11.231,9.73"
         inkscape:connector-curvature="0"
         id="path134"
         style="fill:#ffffff;fill-opacity:1;fill-rule:evenodd;stroke:none" /><path
         d="m 1472.61,1752.51 c 84.23,52.47 -22.49,-76.79 -7.27,-16.51 18.72,-15.55 32.04,16.5 7.27,16.51"
         inkscape:connector-curvature="0"
         id="path136"
         style="fill:#ffffff;fill-opacity:1;fill-rule:evenodd;stroke:none" /><path
         d="m 1446.34,1775.44 c -32.18,-22.15 -51.54,-25.31 -58.13,-9.5 -5.43,-26.55 -19.24,-44.28 -41.42,-53.13 27.33,-5.49 42.83,-2.38 45.72,33.28 25.21,-8.57 42.87,9.23 53.83,29.35"
         inkscape:connector-curvature="0"
         id="path138"
         style="fill:#ffffff;fill-opacity:1;fill-rule:evenodd;stroke:none" /><path
         d="M 992.27,1017.7 932.398,862.539 c 47.012,-179.16 54.688,-299.301 22.957,-360.398 l -18.132,89.738 -40.313,-128.027 132.85,-62.622 -59.834,69.61 73.794,-39.711 c 2.64,26.312 -10.13,63.211 -38.28,110.711 l 32.69,-25.762 c 16.45,120.031 7.41,235.481 -27.13,346.461 l -27.117,-142.598 13.172,223.981 -4.785,73.778"
         inkscape:connector-curvature="0"
         id="path140"
         style="fill:#ffffff;fill-opacity:1;fill-rule:evenodd;stroke:none" /><path
         d="m 1414.44,1203.91 c 32.7,-145.02 36.65,-315.762 11.79,-512.23 l 35.37,77.07 c 48.88,-160.41 74.55,-284 77.05,-370.789 l -86.14,31.73 68.89,8.161 c 7.45,25.187 -12.49,45.16 -59.8,59.839 l 29.89,14.508 c 14.74,8.231 -8.83,31.801 -70.71,70.692 l 59.85,6.347 -31.75,80.703 -13.57,-22.652 -26.33,74.313 -29.9,-19.922 c 44.83,178.129 56.63,345.53 35.36,502.23"
         inkscape:connector-curvature="0"
         id="path142"
         style="fill:#ffffff;fill-opacity:1;fill-rule:evenodd;stroke:none" /><path
         d="m 1394.09,1259.71 c -66.24,-35.96 -158.93,-24.69 -278.02,33.79 110.5,-44.14 203.18,-55.41 278.02,-33.79"
         inkscape:connector-curvature="0"
         id="path144"
         style="fill:#ffffff;fill-opacity:1;fill-rule:evenodd;stroke:none" /><path
         d="m 1287.49,910.512 25,3.078 3.72,-30.371 30.4,3.73 2.95,-23.98 -30.4,-3.731 7.26,-59.097 -25.01,-3.071 -7.25,59.09 -32.36,-3.969 -2.95,24 32.36,3.969 -3.72,30.352"
         inkscape:connector-curvature="0"
         id="path146"
         style="fill:#ffffff;fill-opacity:1;fill-rule:nonzero;stroke:none" /><path
         d="m 1234.54,1225.63 c 0,5.54 3.76,10.07 8.38,10.07 4.64,0 8.37,-4.53 8.37,-10.07 0,-5.57 -3.73,-10.06 -8.37,-10.06 -4.62,0 -8.38,4.49 -8.38,10.06"
         inkscape:connector-curvature="0"
         id="path148"
         style="fill:#ffffff;fill-opacity:1;fill-rule:nonzero;stroke:none" /><path
         d="m 1234.54,1195.04 c 0,5.55 3.76,10.08 8.38,10.08 4.64,0 8.37,-4.53 8.37,-10.08 0,-5.57 -3.73,-10.06 -8.37,-10.06 -4.62,0 -8.38,4.49 -8.38,10.06"
         inkscape:connector-curvature="0"
         id="path150"
         style="fill:#ffffff;fill-opacity:1;fill-rule:nonzero;stroke:none" /><path
         d="m 1234.54,1164.46 c 0,5.54 3.76,10.07 8.38,10.07 4.64,0 8.37,-4.53 8.37,-10.07 0,-5.57 -3.73,-10.09 -8.37,-10.09 -4.62,0 -8.38,4.52 -8.38,10.09"
         inkscape:connector-curvature="0"
         id="path152"
         style="fill:#ffffff;fill-opacity:1;fill-rule:nonzero;stroke:none" /><path
         d="m 1240.57,1133.18 c 0,5.57 3.76,10.1 8.4,10.1 4.63,0 8.39,-4.53 8.39,-10.1 0,-5.54 -3.76,-10.03 -8.39,-10.03 -4.64,0 -8.4,4.49 -8.4,10.03"
         inkscape:connector-curvature="0"
         id="path154"
         style="fill:#ffffff;fill-opacity:1;fill-rule:nonzero;stroke:none" /><path
         d="m 1244.6,1102.88 c 0,5.58 3.74,10.11 8.37,10.11 4.66,0 8.39,-4.53 8.39,-10.11 0,-5.54 -3.73,-10.04 -8.39,-10.04 -4.63,0 -8.37,4.5 -8.37,10.04"
         inkscape:connector-curvature="0"
         id="path156"
         style="fill:#ffffff;fill-opacity:1;fill-rule:nonzero;stroke:none" /><path
         d="m 1243.26,1072.31 c 0,5.52 3.77,10.09 8.4,10.09 4.62,0 8.37,-4.57 8.37,-10.09 0,-5.55 -3.75,-10.08 -8.37,-10.08 -4.63,0 -8.4,4.53 -8.4,10.08"
         inkscape:connector-curvature="0"
         id="path158"
         style="fill:#ffffff;fill-opacity:1;fill-rule:nonzero;stroke:none" /><path
         d="m 1241.92,1042.77 c 0,5.55 3.74,10.06 8.39,10.06 4.64,0 8.39,-4.51 8.39,-10.06 0,-5.56 -3.75,-10.05 -8.39,-10.05 -4.65,0 -8.39,4.49 -8.39,10.05"
         inkscape:connector-curvature="0"
         id="path160"
         style="fill:#ffffff;fill-opacity:1;fill-rule:nonzero;stroke:none" /><path
         d="m 1249.31,1018.91 c 0,5.56 3.74,10.05 8.37,10.05 4.66,0 8.39,-4.49 8.39,-10.05 0,-5.58 -3.73,-10.09 -8.39,-10.09 -4.63,0 -8.37,4.51 -8.37,10.09"
         inkscape:connector-curvature="0"
         id="path162"
         style="fill:#ffffff;fill-opacity:1;fill-rule:nonzero;stroke:none" /><path
         d="m 1261.1,993.668 c 0,5.551 3.75,10.082 8.39,10.082 4.62,0 8.38,-4.531 8.38,-10.082 0,-5.559 -3.76,-10.059 -8.38,-10.059 -4.64,0 -8.39,4.5 -8.39,10.059"
         inkscape:connector-curvature="0"
         id="path164"
         style="fill:#ffffff;fill-opacity:1;fill-rule:nonzero;stroke:none" /><path
         d="m 1272.1,966.949 c -1.42,5.403 1.05,10.723 5.51,11.903 4.48,1.226 9.29,-2.172 10.72,-7.571 1.44,-5.34 -1.02,-10.672 -5.5,-11.902 -4.46,-1.188 -9.28,2.199 -10.73,7.57"
         inkscape:connector-curvature="0"
         id="path166"
         style="fill:#ffffff;fill-opacity:1;fill-rule:nonzero;stroke:none" /><path
         d="m 1288.18,949.43 7.52,-10.211 0.69,-21.5 8.73,0 0,25.902 c 7.76,13.758 10.42,36.828 8.04,69.249 l -8.73,-6.74 c 6.27,-22.982 4.03,-42.681 -6.7,-59.169 l -7.09,8.078 -2.46,-5.609"
         inkscape:connector-curvature="0"
         id="path168"
         style="fill:#ffffff;fill-opacity:1;fill-rule:evenodd;stroke:none" /><path
         d="m 1293.58,1225.96 c 2,5.19 7.14,8.03 11.42,6.4 4.35,-1.68 6.25,-7.22 4.24,-12.42 -2,-5.19 -7.11,-8.03 -11.43,-6.37 -4.32,1.65 -6.23,7.19 -4.23,12.39"
         inkscape:connector-curvature="0"
         id="path170"
         style="fill:#ffffff;fill-opacity:1;fill-rule:nonzero;stroke:none" /><path
         d="m 1286.21,1202.07 c 2,5.2 7.13,8.07 11.46,6.39 4.32,-1.64 6.21,-7.2 4.24,-12.39 -2.01,-5.21 -7.15,-8.08 -11.47,-6.42 -4.32,1.68 -6.21,7.25 -4.23,12.42"
         inkscape:connector-curvature="0"
         id="path172"
         style="fill:#ffffff;fill-opacity:1;fill-rule:nonzero;stroke:none" /><path
         d="m 1280.91,1171.91 c -0.7,5.52 2.48,10.45 7.09,11.04 4.59,0.55 8.88,-3.46 9.55,-8.96 0.69,-5.55 -2.5,-10.45 -7.08,-11.04 -4.62,-0.57 -8.89,3.46 -9.56,8.96"
         inkscape:connector-curvature="0"
         id="path174"
         style="fill:#ffffff;fill-opacity:1;fill-rule:nonzero;stroke:none" /><path
         d="m 1283.39,1144.67 c -0.68,5.55 2.49,10.45 7.08,11.05 4.61,0.56 8.88,-3.47 9.57,-9 0.68,-5.51 -2.52,-10.45 -7.11,-11.02 -4.6,-0.54 -8.87,3.47 -9.54,8.97"
         inkscape:connector-curvature="0"
         id="path176"
         style="fill:#ffffff;fill-opacity:1;fill-rule:nonzero;stroke:none" /><path
         d="m 1283.39,1118.77 c -0.68,5.51 2.49,10.48 7.08,11.02 4.61,0.58 8.88,-3.44 9.57,-8.97 0.68,-5.49 -2.52,-10.45 -7.11,-11 -4.6,-0.55 -8.87,3.45 -9.54,8.95"
         inkscape:connector-curvature="0"
         id="path178"
         style="fill:#ffffff;fill-opacity:1;fill-rule:nonzero;stroke:none" /><path
         d="m 1286.72,1090.87 c -0.66,5.52 2.5,10.44 7.11,11.03 4.59,0.54 8.87,-3.47 9.55,-8.99 0.67,-5.49 -2.5,-10.45 -7.11,-11.01 -4.58,-0.56 -8.86,3.47 -9.55,8.97"
         inkscape:connector-curvature="0"
         id="path180"
         style="fill:#ffffff;fill-opacity:1;fill-rule:nonzero;stroke:none" /><path
         d="m 1294.75,1061.62 c -0.66,5.51 2.51,10.45 7.12,11.03 4.59,0.55 8.86,-3.46 9.55,-8.99 0.66,-5.5 -2.49,-10.44 -7.11,-11 -4.6,-0.56 -8.88,3.44 -9.56,8.96"
         inkscape:connector-curvature="0"
         id="path182"
         style="fill:#ffffff;fill-opacity:1;fill-rule:nonzero;stroke:none" /><path
         d="m 1294.75,1061.62 c -0.66,5.51 2.51,10.45 7.12,11.03 4.59,0.55 8.86,-3.46 9.55,-8.99 0.66,-5.5 -2.49,-10.44 -7.11,-11 -4.6,-0.56 -8.88,3.44 -9.56,8.96"
         inkscape:connector-curvature="0"
         id="path184"
         style="fill:#ffffff;fill-opacity:1;fill-rule:nonzero;stroke:none" /><path
         d="m 1299.44,1035.72 c -0.68,5.51 2.51,10.45 7.11,11 4.61,0.57 8.87,-3.43 9.54,-8.96 0.7,-5.51 -2.49,-10.44 -7.09,-11.02 -4.61,-0.55 -8.88,3.48 -9.56,8.98"
         inkscape:connector-curvature="0"
         id="path186"
         style="fill:#ffffff;fill-opacity:1;fill-rule:nonzero;stroke:none" /><path
         d="m 1300.12,1010.96 c -0.68,5.51 2.51,10.44 7.09,11.01 4.6,0.59 8.88,-3.44 9.55,-8.96 0.7,-5.51 -2.5,-10.46 -7.11,-11 -4.57,-0.58 -8.87,3.44 -9.53,8.95"
         inkscape:connector-curvature="0"
         id="path188"
         style="fill:#ffffff;fill-opacity:1;fill-rule:nonzero;stroke:none" /><path
         d="m 1278.23,768.789 c 86.65,-145.418 127.33,-267.187 122.02,-365.348 l -122.02,365.348"
         inkscape:connector-curvature="0"
         id="path190"
         style="fill:#ffffff;fill-opacity:1;fill-rule:evenodd;stroke:none" /><path
         d="m 1140.42,1224.59 c -48.48,-92.52 -61.62,-203.02 -39.33,-331.43 -1.77,118.48 11.33,228.97 39.33,331.43"
         inkscape:connector-curvature="0"
         id="path192"
         style="fill:#ffffff;fill-opacity:1;fill-rule:evenodd;stroke:none" /><path
         d="M 957.711,406.59 C 924.418,359.379 808.109,376.68 820.355,354.352 l 83.899,-14.821 -21.524,22.367 49.247,-15.117 -10.926,18.489 53.125,-8.411 -21.524,24.02 50.588,-5.891 -45.529,31.602"
         inkscape:connector-curvature="0"
         id="path194"
         style="fill:#ffffff;fill-opacity:1;fill-rule:evenodd;stroke:none" /><path
         d="m 1130.31,1447.2 c -30.12,-49.76 -31.46,-93.68 -4.03,-131.81 -7.78,48.79 -6.43,92.76 4.03,131.81"
         inkscape:connector-curvature="0"
         id="path196"
         style="fill:#ffffff;fill-opacity:1;fill-rule:evenodd;stroke:none" /><path
         d="m 1536.64,385.059 c -17.49,-10.731 -62.05,-16.129 -133.7,-16.161 l 133.7,16.161"
         inkscape:connector-curvature="0"
         id="path198"
         style="fill:#ffffff;fill-opacity:1;fill-rule:evenodd;stroke:none" /><path
         d="m 1456.43,355.66 c -52.51,-43 -62.84,-66.129 -30.99,-69.351 -13.4,12.64 -3.08,35.781 30.99,69.351"
         inkscape:connector-curvature="0"
         id="path200"
         style="fill:#ffffff;fill-opacity:1;fill-rule:evenodd;stroke:none" /><path
         d="m 1546.04,364.98 c 17.53,-13.769 27.83,-39.32 30.85,-76.671 l -56.06,10.3 29.89,8.422 -21.51,14.02 14.03,3.738 -14.95,14.941 15.89,4.68 1.86,20.57"
         inkscape:connector-curvature="0"
         id="path202"
         style="fill:#ffffff;fill-opacity:1;fill-rule:evenodd;stroke:none" /><path
         d="m 1377.88,1826.77 c -7.38,10.51 -18.29,17.24 -32.8,20.18 l 3.97,-7.91 -9.03,-1.09 c 4.11,0.05 7.11,-6.83 9.03,-20.55 l 3.2,16.2 c 10.42,0.89 18.98,-1.4 25.63,-6.83"
         inkscape:connector-curvature="0"
         id="path204"
         style="fill:#ffffff;fill-opacity:1;fill-rule:evenodd;stroke:none" /><path
         d="m 1310.08,1816.92 c 16.55,-3.43 19.77,-17.23 3.28,-22.59 7.14,8.41 4.91,17.44 -3.28,22.59"
         inkscape:connector-curvature="0"
         id="path206"
         style="fill:#ffffff;fill-opacity:1;fill-rule:evenodd;stroke:none" /><path
         d="m 1526.86,1887.39 c 14.51,-36.36 -19.99,-56.53 -70.4,-52.15 l -5.92,31.75 40.3,-17.87 -22.51,27.6 36.85,-15.94 -21.72,24.38 33.97,-16.66 -15.5,19.08 24.93,-0.19"
         inkscape:connector-curvature="0"
         id="path208"
         style="fill:#ffffff;fill-opacity:1;fill-rule:evenodd;stroke:none" /><path
         d="m 1273.49,1767.82 c -4.64,-5.01 -2.03,-11.95 11.67,-13.16 -6.2,4.75 -10.07,9.17 -11.67,13.16"
         inkscape:connector-curvature="0"
         id="path210"
         style="fill:#ffffff;fill-opacity:1;fill-rule:evenodd;stroke:none" /><path
         d="m 1266.26,1748.23 c -59.22,-26.97 23.11,-99.03 152.66,-51 -31.21,-5.15 -57.81,-7.08 -79.78,-5.78 l 7.31,7.69 -28.79,-7.31 5.74,11.49 -26.46,-4.18 8.06,11.87 -30.29,0 10.75,10.74 -23.79,3.07 19.58,8.83 -16.9,-0.38 14.96,6.53 -13.05,8.43"
         inkscape:connector-curvature="0"
         id="path212"
         style="fill:#ffffff;fill-opacity:1;fill-rule:evenodd;stroke:none" /><path
         d="m 1276.62,1794.64 c 37.99,-12.68 50.56,-36.78 42.9,-69.99 0.06,6.42 -5.85,12.35 -17.79,17.79 l 13.1,3.74 -15.3,6.82 8.42,6.56 -16.52,7.17 8.41,5.6 -11.21,2.18 5.76,3.73 c -8.99,2.74 -14.34,3.58 -16.02,2.51 -6.5,1.82 -7.09,6.44 -1.75,13.89"
         inkscape:connector-curvature="0"
         id="path214"
         style="fill:#ffffff;fill-opacity:1;fill-rule:evenodd;stroke:none" /><path
         d="m 1550.19,1871.17 c 22.23,-21.87 21.1,-59.5 -3.39,-112.88 -11.25,-12.98 -21.94,-18.9 -32.01,-17.71 6.51,12.77 8.3,22.87 5.34,30.33 13.44,3.91 22.6,8.82 27.52,14.74 l -29.55,2.81 32.53,17.98 -30.07,-1.64 30.5,19.66 -27.63,-2.36 c 18.81,10.42 37.39,27.22 26.76,49.07"
         inkscape:connector-curvature="0"
         id="path216"
         style="fill:#ffffff;fill-opacity:1;fill-rule:evenodd;stroke:none" /><path
         d="m 1536.45,1866.38 c -6.52,-28.04 -32.11,-42.34 -76.74,-42.92 l 3.8,-44.74 -13.98,-17.5 12.85,-2.73 c 21.74,20.6 5.05,29.15 4.74,59.43 43.58,-0.26 66.67,15.87 69.33,48.46"
         inkscape:connector-curvature="0"
         id="path218"
         style="fill:#ffffff;fill-opacity:1;fill-rule:evenodd;stroke:none" /><path
         d="m 1472.68,1763.39 c 33.52,27.22 55.08,13.78 34.71,-18.84 12.9,29.61 -4.82,32.9 -33.2,14.05 l -1.51,4.79"
         inkscape:connector-curvature="0"
         id="path220"
         style="fill:#ffffff;fill-opacity:1;fill-rule:evenodd;stroke:none" /><path
         d="m 1347.74,1861.16 c 20.5,8.96 33.15,-4.92 34.65,-23.8 -11.11,24.23 -42.09,15.91 -34.65,23.8"
         inkscape:connector-curvature="0"
         id="path222"
         style="fill:#ffffff;fill-opacity:1;fill-rule:evenodd;stroke:none" /><path
         d="m 1330.36,1790.51 c 2.95,-20.37 16.32,-24.74 40.17,-13.1 -15.93,-1.31 -29.33,3.04 -40.17,13.1"
         inkscape:connector-curvature="0"
         id="path224"
         style="fill:#ffffff;fill-opacity:1;fill-rule:evenodd;stroke:none" /><path
         d="m 1081.65,1279.73 -69.15,-198.64 c 42.8,68.36 73.72,126.59 92.68,174.57 l -23.53,24.07"
         inkscape:connector-curvature="0"
         id="path226"
         style="fill:#ffffff;fill-opacity:1;fill-rule:evenodd;stroke:none" /><path
         d="m 1357.3,1429.36 c 47.57,-11.97 86.55,-55.55 116.87,-130.77 -37.15,59.84 -76.11,103.44 -116.87,130.77"
         inkscape:connector-curvature="0"
         id="path228"
         style="fill:#ffffff;fill-opacity:1;fill-rule:evenodd;stroke:none" /><path
         d="m 871.605,1993.16 c -16.062,-11.52 -9.343,-41.74 8.899,-31.97 l -8.899,6.13 8.899,2.36 -7.305,4.36 9.649,2.93 -9.328,6.43 6.71,1.87 -8.625,7.89"
         inkscape:connector-curvature="0"
         id="path230"
         style="fill:#231f20;fill-opacity:1;fill-rule:evenodd;stroke:none" /><path
         d="m 913.941,2046.87 c -16.054,-11.52 -9.336,-41.72 8.895,-31.97 l -8.895,6.15 8.895,2.33 -7.313,4.38 9.637,2.93 -9.324,6.4 6.699,1.9 -8.594,7.88"
         inkscape:connector-curvature="0"
         id="path232"
         style="fill:#231f20;fill-opacity:1;fill-rule:evenodd;stroke:none" /><path
         d="m 850.641,2034 c 0,11.93 5.945,21.59 13.281,21.59 7.332,0 13.281,-9.66 13.281,-21.59 0,-11.9 -5.949,-21.56 -13.281,-21.56 -7.336,0 -13.281,9.66 -13.281,21.56"
         inkscape:connector-curvature="0"
         id="path234"
         style="fill:#ffffff;fill-opacity:1;fill-rule:nonzero;stroke:none" /><path
         d="m 864.312,2051.81 c -16.054,-11.49 -9.367,-41.7 8.887,-31.95 l -8.887,6.13 8.887,2.32 -7.285,4.41 9.637,2.93 -9.344,6.4 6.719,1.9 -8.614,7.86"
         inkscape:connector-curvature="0"
         id="path236"
         style="fill:#231f20;fill-opacity:1;fill-rule:evenodd;stroke:none" /><path
         d="m 950.797,2056.75 c -12.793,16.74 -42.246,25.68 -88.391,26.78 47.305,2.24 78.996,-5.48 95.129,-23.18 l -6.738,-3.6"
         inkscape:connector-curvature="0"
         id="path238"
         style="fill:#231f20;fill-opacity:1;fill-rule:evenodd;stroke:none" /><path
         d="m 1195.23,2554.48 c -10.37,4.93 -20.73,9.79 -31.08,14.61 -0.7,39.57 -2.4,84.8 -4.08,129.21 -1.05,27.99 -2.13,56.54 -2.94,83.67 0.3,-0.22 0.61,-0.41 0.92,-0.62 10.28,-6.7 23.47,-7.99 34.99,-3.24 2.26,0.95 4.53,1.85 6.81,2.7 2.83,1.06 5.51,2.46 7.97,4.15 7.06,0.63 13.83,3.26 19.46,7.56 2.01,1.21 5.22,2.96 8.43,4.76 l 2.21,1.22 c 2.18,1.22 4.33,2.39 6.39,3.59 l 0,-117.15 c 0.02,-78.8 0.02,-114.33 -0.22,-134.23 -8.25,-3.9 -16.51,-7.83 -24.75,-11.78 -2.03,-0.98 -3.94,-2.13 -5.75,-3.43 -3.52,8.1 -9.88,14.95 -18.36,18.98 z m 480.44,273.03 c 2.5,-6.3 6.75,-11.92 12.43,-16.15 l 16.96,-12.73 c 1.5,-49.87 2.39,-110.42 2.76,-189.57 0.21,-16.07 -1.16,-28.36 -2.99,-37.5 -5.22,-1.1 -10.19,-3.31 -14.53,-6.48 -1.87,-0.59 -9.89,-1.25 -18.78,0.74 -6.75,2.04 -16.09,35.89 -13.93,71.79 0,27.67 0.87,63.98 1.66,97.45 0.64,26.65 1.29,53.91 1.52,77.76 l 5.32,4.06 c 3.89,2.92 7.12,6.54 9.58,10.63 z m 832.24,-38.13 0,0 z m -485.72,-278.4 c -2.65,0 -5.03,0.04 -7.16,0.11 -0.97,36.92 -2.88,115.53 -2.45,152.89 0.22,18.52 0.27,36.16 0.22,51.27 1.37,-0.09 2.77,-0.12 4.18,-0.07 27.2,-38.91 31.31,-90.95 31.31,-118.73 0,-35.88 -4.83,-64.5 -14.35,-85.31 l -11.75,-0.16 z m 324.24,234.35 c 7.16,-1.59 14.29,-3.18 21.39,-4.8 l 2.75,-7.53 c 10.84,-29.66 25.65,-70.29 32.09,-86.51 3.44,-8.69 9.86,-15.61 17.96,-19.7 1.55,-2.3 3.34,-4.47 5.37,-6.4 3.84,-3.69 6.72,-6.58 9.63,-9.53 1.05,-1.07 2.11,-2.17 3.24,-3.27 -2.49,1.55 -4.99,3.09 -7.52,4.66 l -2.48,1.55 c -2.76,1.73 -5.79,3.1 -9.08,4.11 -22.78,6.84 -46.19,13.63 -69.95,20.27 -0.49,16.32 -1.02,32.41 -1.53,48.46 l -0.27,8.16 c -0.54,16.76 -1.09,33.53 -1.6,50.53 z M 218.559,2369.8 c 0,-8.9 -0.879,-17.31 -2.618,-25.12 -2.148,-0.74 -4.226,-1.69 -6.171,-2.79 -11.356,-6.33 -23.282,-11.93 -33.731,-15.93 l -16.172,82.48 c -1.258,6.47 -4.148,12.31 -8.203,17.08 4.543,-1.92 9.102,-3.86 13.723,-5.82 10.984,-4.63 22.371,-9.45 34.98,-14.95 6.356,-2.75 18.192,-7.84 18.192,-34.95 z m 343.566,374.41 c 6.141,-5.23 12.559,-15.44 18.457,-29.7 10.84,-26.2 17.313,-61.7 17.313,-95.02 0.011,-30.05 -2.891,-59.35 -8.262,-84.04 -5.156,-1.49 -9.949,-4.09 -14.071,-7.65 -22.05,-19 -27.785,-19.55 -28.378,-19.55 -0.157,0 -0.305,0.01 -0.469,0.01 -1.66,1.56 -4.102,5.47 -4.973,8.03 -34.18,106.12 8.828,204.49 20.383,227.92 z m 2004.265,-370.48 -19.06,17.89 c -6.79,6.34 -16.67,10.11 -26.43,10.11 -3.16,0 -5.8,0.27 -8.75,0.56 -4.87,0.46 -9.74,0.87 -15.64,0.87 l -2.52,-0.01 c -5.66,-0.13 -11.17,-1.51 -16.12,-4.03 -10.6,0.86 -20.94,-2.88 -28.59,-10.12 -8.62,-8.09 -18.81,-19.61 -30.96,-34.96 -23.37,9.14 -45.32,17.19 -68.11,25.53 -0.47,18.29 -0.88,36.12 -1.28,53.95 l -0.2,8.92 c -0.24,9.9 -0.47,19.82 -0.72,29.85 10.46,-4.17 20.34,-8.12 28.67,-11.47 11.05,-4.42 18.94,-7.57 22.83,-8.95 3.17,-0.97 6.67,-1.56 10.22,-1.7 6.4,-4.67 14.07,-7.18 22.03,-7.18 1.1,0 2.2,0.04 3.18,0.13 8.07,0.68 16.15,1.31 24.22,1.88 11.83,0.88 22.69,7.41 29.04,17.44 l 24.57,38.81 c 9.43,15.02 7,34.87 -5.82,47.19 -2.7,2.59 -4.75,4.83 -7.25,7.56 -3.29,3.59 -6.59,7.17 -10.96,11.34 -4.34,4.14 -9.83,7.2 -15.88,8.89 -1.91,5.7 -5.14,10.86 -9.49,15.04 2.8,-0.63 5.69,-0.95 8.62,-0.95 l 2.53,0.07 c 4.81,0.36 9.62,0.64 14.88,0.94 17.61,1.02 31.96,13.85 34.92,31.2 3.4,19.73 14.21,109.29 17.5,136.76 1.23,10.38 -1.95,20.91 -8.77,28.87 -3.6,4.25 -6.47,7.91 -9.31,11.53 l -1.06,1.34 c -3.43,4.35 -6.89,8.75 -11.27,13.85 -4.67,5.42 -10.86,9.42 -17.58,11.49 -4.91,6.44 -11.79,11.17 -19.7,13.39 -17.62,4.97 -59.11,10.38 -73.27,11.85 -54.2,16.73 -108.77,32.24 -162.2,46.1 -13.17,3.41 -22.81,6.74 -33.53,10.44 -12.43,4.29 -25.29,8.74 -43.92,13.23 -19.4,4.67 -40.01,-7.6 -45.16,-26.95 l -6.04,-22.72 c -3.85,-14.62 1.36,-30.03 13.29,-39.31 14.3,-11.15 28.58,-22.38 42.84,-33.69 l 0,-38.57 c -35.28,48.98 -81.43,74.98 -106.5,75.15 -2.71,0 -5.4,-0.29 -8.03,-0.86 -23.32,11.37 -49.42,19.96 -77.71,25.56 -37.26,7.21 -76.91,11.38 -118.62,12.41 -4.02,0 -7.96,-0.65 -11.71,-1.88 -1.56,0.83 -3.2,1.55 -4.88,2.16 -5.73,5.7 -13.18,9.46 -21.31,10.58 -11.82,1.68 -24.02,3.14 -36.17,4.58 l -20.22,2.43 c -5.25,0.67 -10.49,1.41 -15.75,2.15 l -3.64,0.53 c -7.84,1.1 -15.68,2.2 -23.38,3.09 -14.11,1.76 -27.18,-4.53 -34.9,-15.18 -1.17,3.58 -2.85,6.99 -5.04,10.11 l -9.05,12.78 c -5.87,8.22 -14.81,13.68 -24.65,15.25 -5.23,3.54 -11.29,5.7 -17.67,6.28 -13.34,1.18 -26.87,2.1 -41.58,3.08 l -41.08,3.03 c -14.23,1.15 -28.53,2.31 -42.76,3.1 l -1.7,0.05 c -0.65,0 -1.32,-0.02 -1.99,-0.06 -0.96,1.04 -1.99,2.16 -3.17,3.41 -4.04,4.32 -9.05,7.6 -14.56,9.63 -7.01,6.97 -16.65,10.97 -27.18,10.97 -9.37,-0.17 -25.02,-2.36 -46.6,-6.53 -58.91,1.69 -118.35,2.03 -176.94,0.99 -27.83,6.36 -37.66,7.01 -45.83,7.08 -9.23,-0.33 -18.01,-4.01 -24.75,-10.47 l -2.87,-2.77 c -2.61,-2.47 -4.85,-5.29 -6.65,-8.34 -1.66,0.46 -3.36,0.81 -5.08,1.04 -6.3,4.51 -13.89,6.99 -21.8,6.99 l -1.67,-0.03 c -14.98,-0.66 -29.98,-1.66 -44.9,-2.69 l -21.26,-1.38 c -7.23,-0.46 -14.42,-0.86 -21.62,-1.24 l -1.83,-0.1 c -12.27,-0.66 -24.58,-1.32 -37.18,-2.31 -16.367,-1.24 -29.941,-12.82 -33.758,-28.8 l -3.984,-16.66 c -3.945,-16.49 3.68,-33.68 18.543,-41.81 4.426,-2.42 8.859,-4.86 13.281,-7.32 0.637,-22.5 2.012,-48.93 3.242,-72.66 1.719,-33.14 3.508,-67.4 3.508,-91.12 0,-29.29 -0.078,-53.16 -0.215,-72.61 -0.187,0.05 -0.382,0.1 -0.558,0.15 -1.434,0.38 -4.258,1.02 -6.035,1.86 -2.84,1.46 -5.809,2.57 -8.895,3.29 -0.988,0.6 -2.031,1.18 -3.105,1.72 l -7.852,3.86 c -16.379,8.16 -37.57,2.6 -47.863,-12.45 -5.399,-7.89 -14.012,-23.04 -26.211,-46.17 -1.289,0.03 -2.5,0.07 -3.68,0.1 0.106,34.24 0.535,71.16 0.957,107.2 0.508,42.55 1.004,86.33 1.004,125.74 l 16.504,10.4 c 7.676,4.81 13.371,12.21 16.027,20.89 1.621,5.29 2.879,9.73 4.278,14.64 1.179,4.15 2.343,8.3 3.867,13.26 5.789,18.75 -4.004,39.02 -22.336,46.18 l -21.602,8.36 c -4.375,1.7 -8.945,2.55 -13.601,2.55 -0.031,0 -0.059,0 -0.078,0 -6.348,3.01 -13.918,4.19 -20.528,3.37 -14.004,-1.64 -28.175,-3.64 -42.726,-5.69 l -45.332,-6.11 c -13.485,-1.74 -26.875,-3.48 -40.321,-5.51 -15.312,-2.34 -27.472,-13.57 -30.976,-28.62 l -3.985,-16.95 c -0.566,-2.39 -0.89,-4.79 -0.988,-7.18 -7.43,5.54 -14.656,9.99 -21.308,13.43 l 0.761,2.72 -18.281,4.96 c -16.894,4.61 -33.906,6.93 -50.555,6.93 -50.597,0 -83.73,-21.26 -92.511,-27.65 -4.121,-2.93 -7.598,-6.66 -10.215,-10.92 -65.438,-32.16 -129.961,-109.98 -143.895,-220.57 -25.07,19.19 -50.988,27.29 -66.359,32.1 -2.274,0.72 -4.356,1.35 -6.25,2.04 -3.594,1.27 -9.59,2.81 -17.598,4.66 -5.293,1.24 -12.207,2.84 -18.554,4.64 l -20.411,7.12 c -13.289,5.81 -16.628,10.54 -17.351,11.88 -0.852,1.59 -0.344,5.34 1.426,10.13 4.578,12.72 16.589,26.07 29.89,37.3 6.348,-16.96 13.332,-33.58 18.781,-43.11 5.633,-9.83 15.282,-16.53 26.368,-18.39 11.23,-1.88 22.644,1.4 31.062,8.79 l 11.711,10.24 c 0.262,0.22 0.496,0.45 0.75,0.67 4.66,1.15 9.016,3.16 12.891,5.97 6.008,4.35 11.222,8.54 16.73,13 3.028,2.45 6.043,4.91 9.317,7.38 17.812,8.39 23.398,30.3 33.152,98.45 3.43,24.03 6.535,60.93 7.695,75.53 0.793,8.91 -1.648,17.85 -6.883,25.2 -10.363,14.47 -31.171,19.72 -47.14,11.91 -5.594,-2.74 -10.274,-5.35 -15.184,-8.13 -3.242,-1.83 -6.515,-3.69 -10.41,-5.62 -1.621,-0.81 -3.176,-1.72 -4.66,-2.73 -10.195,1.99 -20.789,-0.28 -29.277,-6.36 -15.235,-10.93 -27.469,-20.39 -37.11,-28.64 -20.644,4.64 -44.48,3.4 -69.773,-4.24 -118.3713,-36.44 -173.0666,-158.3 -173.7893,-256.25 0.0195,-79.35 28.6133,-129.6 89.8903,-158.11 6.086,-2.87 11.985,-5.57 17.754,-8.16 -21.8748,-1.45 -46.9216,-28.83 -47.1365,-29.09 -1.25,-1.43 -2.3633,-2.93 -3.3593,-4.51 -5.3633,-2.03 -10.2657,-5.26 -14.25,-9.53 l -9.6758,-10.36 c -2.6094,-2.82 -4.7656,-6.01 -6.3867,-9.41 C 28.793,2351.72 5.45312,2259.78 0.445312,2227.18 -1.85156,2212.34 4.88672,2197.59 17.5742,2189.59 c 16.7774,-10.57 59.4141,-26.3 108.1718,-26.3 21.906,0 43.176,3.15 63.359,9.41 36.036,11.5 69.895,30.01 98.567,53.79 9.629,-0.89 19.629,2 27.215,8.1 l 2.715,2.18 c 34.296,27.44 88.652,70.96 102.539,160.65 36.671,-29.37 86.015,-41.15 135.832,-31.33 48.281,9.96 92.265,37.4 125.437,77.91 0,-9.54 3.625,-18.83 10.332,-25.9 8.391,-8.84 20.559,-13.26 33.106,-11.27 l 23.535,3.7 c 16.211,2.59 31.25,4.98 46.301,7.02 83.183,10.9 117.558,13.21 136.015,14.45 7.156,0.49 12.313,0.86 16.981,1.39 4.738,0.56 9.277,2 13.398,4.22 5.625,0.41 11.047,2.06 15.871,4.77 5.028,-2.41 10.586,-3.7 16.289,-3.7 l 2.996,0.12 c 9.686,0.78 19.346,1.7 29.026,2.66 13.22,1.29 26.46,2.57 39.75,3.41 13.22,0.84 26.4,1.18 40.81,1.56 l 2.12,0.05 c 8.95,0.26 17.84,0.51 26.69,0.89 5.31,0.24 10.52,1.61 15.26,4 7.32,0.13 14.37,2.36 20.46,6.51 8.65,5.88 17.27,11.69 25.96,17.48 0.06,0.05 0.14,0.09 0.2,0.13 1.43,-4.07 3.58,-7.91 6.4,-11.33 7.05,-8.65 17.81,-13.81 29.74,-13.81 0.02,0 0.03,0 0.05,0 l 21.22,0.4 c 18.2,0.35 36.35,0.71 54.28,0.71 l 7.44,-0.02 c 19.36,-0.1 38.68,-0.64 58.01,-1.21 l 22.39,-0.61 c 6.3,0 12.43,1.57 17.89,4.51 6.08,0.25 12.04,1.98 17.29,5.04 4.85,2.8 8.77,5.24 13.11,7.95 3.59,2.26 7.14,4.48 11.72,7.08 10.09,5.73 17.05,16.02 18.66,27.55 0.21,1.54 0.52,2.89 0.9,4.64 0.72,3.33 1.42,6.63 1.91,10.46 2.27,16.59 -6.88,32.85 -22.21,39.54 -9.69,4.23 -18.55,8.76 -27.75,13.43 -4.16,2.13 -8.36,4.26 -12.67,6.39 -0.93,41.32 -1.85,88.5 -2.76,135.82 l -0.05,2.92 c -0.42,21.61 -0.84,43.23 -1.26,64.27 2.12,-1.49 4.43,-2.8 6.91,-3.86 5.52,-2.35 11.51,-3.34 17.44,-2.96 1.97,-1.61 4.04,-3.28 6.56,-5.17 10.34,-7.8 24.81,-9.65 36.45,-4.97 5.55,2.18 10.45,5.66 14.32,10.04 -0.14,-9.66 -0.3,-19.59 -0.48,-29.7 -0.65,-39.03 -1.4,-83.26 -1.4,-124.73 0,-38.83 4.58,-67.26 14.78,-92.14 24.37,-59.89 74.74,-96.57 141.88,-103.3 24.54,-2.36 47.15,0.9 68.06,9.59 8.12,-3.07 17.36,-3.26 25.91,-0.29 53.44,18.93 86.35,72.33 90.26,146.49 1.37,25.84 3.53,126.93 4.63,180.38 4.34,1.91 8.36,3.59 13.03,5.01 0.33,0.11 0.66,0.22 0.99,0.33 l 0,-125.08 c 0,-83.67 -0.6,-126.1 -1.22,-147.55 -3.91,-1.7 -7.83,-3.43 -11.75,-5.16 -11.08,-4.89 -19.15,-14.91 -21.59,-26.68 l -3.51,-16.51 c -2.07,-9.79 -0.09,-20.2 5.42,-28.58 5.54,-8.38 14.38,-14.29 24.15,-16.17 l 17.96,-3.56 c 16.7,-3.31 38.26,-7.57 57.65,-11.11 39.97,-7.22 70.15,-11.69 97.14,-11.69 16.71,0 31.78,1.74 45.5,5.19 8.45,-6.18 19.6,-8.68 30.24,-6.32 14.95,3.28 29.85,6.53 44.71,9.6 7.83,1.59 14.82,5.56 20.14,11.38 1.52,1.66 5.07,5.64 9.72,11.89 -0.27,-14.1 -0.57,-26.18 -0.9,-35.72 -10.61,-4.06 -21.21,-8.18 -31.81,-12.33 -11.47,-4.52 -20.03,-14.37 -22.88,-26.4 l -5.35,-22.72 c -2.33,-9.8 -0.71,-19.92 4.59,-28.52 5.25,-8.45 13.78,-14.6 23.41,-16.83 11.79,-2.78 24.29,-5.56 36.98,-8.4 22.23,-4.96 47.45,-10.6 66.8,-15.72 33.05,-9.93 66.87,-20.58 101.04,-31.79 33.84,-10.04 70.39,-21.24 112.12,-37.75 5.81,-2.29 12.07,-3.12 18.13,-2.41 4.28,-1.64 8.81,-2.49 13.48,-2.49 3.24,0 6.5,0.42 9.61,1.25 7.94,2.1 14.79,3.66 22.1,5.34 6.55,1.48 13.19,2.99 20.71,4.91 15.07,3.84 26.08,16.28 28.07,31.74 l 17.16,135.85 c 1.5,11.91 -2.84,23.92 -11.59,32.13"
         inkscape:connector-curvature="0"
         id="path240"
         style="fill:#ffffff;fill-opacity:1;fill-rule:nonzero;stroke:none" /><path
         d="m 2035.49,2492.34 -4.34,-0.06 c -2.42,-0.04 -5.49,-0.12 -8.96,-0.12 -12.87,0 -20.79,0.99 -25.52,1.97 -0.92,32.9 -3.4,127.35 -2.9,170.08 0.34,29.75 0.23,57.25 0.06,75.53 4.86,-1.15 10.01,-2.62 14.86,-4.5 5.28,-2.04 11.11,-1.59 15.9,1.09 2.19,-2.7 4.38,-5.56 6.54,-8.58 31.3,-43.36 35.96,-100.86 35.96,-131.3 0,-46.41 -7.49,-81.24 -22.79,-105.75 -2.07,0.92 -4.31,1.48 -6.68,1.6 -0.32,0.01 -1.79,0.04 -2.13,0.04 z m -1447.642,21.21 c -30.801,-26.55 -37.735,-24.6 -46.164,-23.67 -9.844,2.72 -16.192,15.72 -17.84,20.64 -40.899,126.97 22.058,243.57 24.746,248.42 1.465,2.49 2.312,5.22 2.547,8.01 23.164,1.58 38.019,-23.96 46.847,-45.25 11.719,-28.36 18.719,-66.56 18.719,-102.2 0.012,-33.71 -3.555,-70.73 -12.058,-101.94 -5.833,1.46 -12.141,0.02 -16.797,-4.01 z M 217.77,2644.86 c -11.563,5.06 -21.75,11.62 -26.36,20.18 -3.652,6.75 -3.562,15.03 0.274,25.45 9.679,26.81 40.507,50.56 56.816,61.2 7.969,-23.86 18.848,-51.74 25.879,-64.02 2.812,-4.9 7.656,-8.28 13.234,-9.2 5.567,-0.96 11.258,0.67 15.496,4.39 l 11.731,10.26 c 1.387,1.21 2.586,2.62 3.555,4.16 4.031,-0.01 8.054,1.12 11.425,3.56 5.711,4.13 10.653,8.12 15.586,12.09 3.875,3.16 7.735,6.29 12.051,9.46 8.535,3.15 13.731,13.23 23.965,84.68 3.328,23.42 6.367,59.38 7.566,74.51 0.391,4.34 -0.73,8.81 -3.426,12.59 -5.351,7.47 -15.292,10.03 -23.585,5.97 -5.223,-2.56 -9.59,-5.02 -13.965,-7.48 -3.614,-2.04 -7.227,-4.07 -11.524,-6.21 -3.242,-1.61 -5.906,-4.08 -7.734,-7.08 l -6.785,2.17 c -5.703,1.84 -11.926,0.88 -16.809,-2.6 -19.062,-13.7 -33.379,-25.05 -43.262,-34.3 -18.699,6.62 -43.074,6.55 -68.425,-1.1 -0.227,-0.06 -0.43,-0.12 -0.625,-0.19 C 83.5391,2809.7 33.0117,2696.31 32.3281,2605.08 32.3477,2532.95 56.7617,2489.41 111.41,2464 c 21.652,-10.19 40.91,-18.34 61.301,-26.97 11.035,-4.65 22.508,-9.51 35.105,-15 12.688,-5.47 29.571,-16.84 29.571,-52.23 0,-15.25 -2.266,-29.22 -6.649,-41.76 -3.828,0.43 -8.398,-0.66 -11.797,-2.57 -16.808,-9.4 -40.097,-20.08 -57.375,-23.55 l -20.175,102.92 c -1.707,8.83 -9.461,15.21 -18.457,15.21 -12.489,0 -34.5317,-22.46 -34.7152,-22.67 -2.1602,-2.48 -3.586,-5.43 -4.2305,-8.55 -0.0195,0 -0.0274,0 -0.0469,0 -5.1562,0 -10.168,-2.13 -13.7617,-5.98 l -9.6367,-10.33 c -1.3086,-1.4 -2.3946,-2.99 -3.2149,-4.73 -10.0859,-21.11 -33.0859,-109.67 -38.2812,-143.49 -1.1524,-7.41 2.2187,-14.79 8.5664,-18.79 14.3633,-9.05 53.7187,-23.4 98.1327,-23.4 20.039,0 39.367,2.85 57.637,8.51 34.191,10.92 69.297,29.61 99.465,56.54 6.406,-3.28 14.394,-2.62 20.273,2.12 l 2.723,2.17 c 37.773,30.24 98.554,79.25 98.789,190.05 3.926,-5.59 8.058,-10.95 12.629,-15.83 26.64,-28.49 63.601,-44.19 104.101,-44.19 l 0.008,0 c 10.215,0 20.539,1.02 30.793,3.04 45.613,9.41 91.25,37.51 124.246,83.93 7.07,-2.61 15.156,-0.74 20.352,4.93 6.875,7.23 31.777,37.35 44.375,102.09 -0.235,-39.15 -0.645,-66.27 -0.977,-78.18 -9.598,-7.04 -19.207,-14.13 -28.797,-21.24 -3.683,-2.72 -6.25,-6.71 -7.207,-11.2 l -3.535,-16.99 c -1.269,-6.05 0.508,-12.32 4.754,-16.81 3.594,-3.78 8.547,-5.86 13.664,-5.86 0.957,0 1.922,0.07 2.879,0.22 l 23.488,3.7 c 16.375,2.62 31.551,5.03 46.844,7.1 83.535,10.94 118.43,13.3 137.188,14.57 6.777,0.45 11.66,0.79 16.007,1.29 3.828,0.46 7.332,2.05 10.125,4.45 5.227,-0.74 10.774,0.67 15,4.26 l 6.758,5.68 c 0.547,-0.88 1.055,-1.76 1.75,-2.55 3.594,-4.09 8.77,-6.41 14.16,-6.41 0.496,0 0.996,0.01 1.504,0.05 9.558,0.77 19.118,1.7 28.688,2.64 13.46,1.31 26.92,2.62 40.39,3.45 13.86,0.88 27.71,1.24 41.49,1.61 9.55,0.26 19.04,0.51 28.48,0.92 4.29,0.19 8.25,1.82 11.35,4.45 4.97,-1.1 10.26,-0.16 14.63,2.81 8.68,5.92 17.36,11.75 26.07,17.57 3.82,2.56 6.58,6.44 7.74,10.89 l 3.68,13.72 c 2.34,8.78 -1.9,17.98 -10.11,21.87 -13.88,6.61 -27.77,13.1 -41.65,19.51 -0.5,42.11 -2.39,91.93 -4.22,140.25 -1.8,47.88 -3.66,97.26 -4.17,138.66 7.61,4.23 15.22,8.46 22.84,12.67 -0.25,-15.48 -0.32,-29.15 -0.16,-36.11 0.15,-6.21 3.33,-11.95 8.54,-15.34 5.19,-3.4 11.72,-4 17.47,-1.64 2.48,1.03 4.96,2.02 7.43,2.95 3.04,1.14 5.71,3.03 7.78,5.51 5.54,-1.03 11.21,0.48 15.46,4.04 2.43,1.53 7.6,4.36 12.31,6.97 10.72,5.94 17.04,9.45 19.51,15.66 2.24,3.79 4.2,7.2 6.14,10.59 0.68,1.21 1.38,2.41 2.09,3.64 2.16,-0.02 4.2,-0.02 6.61,-0.06 l 0,-159.84 c 0.03,-94.86 0.03,-128.18 -0.43,-146.27 -11.75,-5.51 -23.5,-11.08 -35.21,-16.71 -5.3,-2.54 -9.1,-7.39 -10.28,-13.14 l -3.56,-16.87 c -1.22,-5.61 0.2,-11.47 3.85,-15.9 3.63,-4.45 9.31,-7.09 14.85,-6.88 l 21.09,0.4 c 18.36,0.35 36.66,0.7 54.81,0.7 l 7.49,-0.02 c 20.09,-0.1 40.14,-0.68 60.21,-1.25 l 19.59,-0.56 c 0.18,0 0.33,0 0.5,0 4.79,0 9.26,1.8 12.63,4.86 4.45,-0.91 9.1,-0.19 13.14,2.16 4.84,2.79 8.7,5.22 12.54,7.62 3.81,2.38 7.57,4.73 12.38,7.47 5.1,2.89 8.54,8 9.35,13.78 0.3,2.22 0.73,4.13 1.14,6.05 0.63,2.85 1.22,5.69 1.67,9 1.12,8.33 -3.41,16.4 -11.12,19.76 -10.04,4.4 -19.23,9.07 -28.37,13.74 -7.41,3.76 -15.02,7.63 -23.08,11.36 -1,43.97 -2.01,95.62 -3,147.42 -1.09,55.74 -2.18,111.64 -3.27,158.36 1.23,0.05 2.49,0.12 3.74,0.18 4.09,-14.27 9.21,-29.9 13.58,-43.15 3.07,-9.37 5.7,-17.32 7.07,-22.19 1.53,-5.47 5.46,-9.95 10.67,-12.2 4.79,-2.04 10.17,-2.02 14.91,0.02 2.1,-1.63 3.81,-3.02 5.51,-4.43 2.29,-1.88 4.56,-3.76 7.53,-6 5.26,-3.95 12.18,-4.91 18.23,-2.48 6.11,2.39 10.51,7.81 11.64,14.25 3.12,17.75 5.75,33.88 8.4,50.01 0.82,5.04 1.67,10.15 2.51,15.26 6.03,-3.83 12.05,-7.63 18.08,-11.49 0.2,-28.34 -0.42,-65.96 -1.09,-105.51 -0.69,-41.11 -1.39,-83.59 -1.39,-124.42 0,-36.26 4.15,-62.53 13.4,-85.06 21.61,-53.11 66.44,-85.66 126.26,-91.64 4.54,-0.44 8.99,-0.67 13.37,-0.67 19.41,0 37.64,4.43 53.74,12.64 0.51,-0.46 1.05,-0.89 1.62,-1.29 5,-3.53 11.37,-4.39 17.14,-2.38 45.9,16.26 74.24,63.55 77.75,129.75 1.37,25.8 3.56,127.94 4.85,191.8 2.87,1.19 5.55,2.4 8.21,3.57 5.76,2.56 11.2,4.98 17.86,7.02 6.32,1.94 10.93,7.11 12.54,13.41 4.25,-2.75 8.54,-5.52 12.8,-8.3 l 0,-147.86 c 0,-101.18 -0.87,-143.08 -1.68,-160.1 -7.49,-3.22 -14.99,-6.5 -22.49,-9.81 -5.55,-2.45 -9.57,-7.44 -10.8,-13.39 l -3.5,-16.5 c -1.04,-4.94 -0.09,-10.08 2.7,-14.3 2.78,-4.2 7.15,-7.13 12.1,-8.08 l 15.19,-3.02 c 16.96,-3.35 39.76,-7.88 60.12,-11.6 38.91,-7.02 68.15,-11.4 93.79,-11.4 17.89,0 33.76,2.22 48.07,6.64 1.05,0.29 2.12,0.61 3.21,0.95 0.46,-0.8 0.97,-1.6 1.56,-2.33 3.59,-4.65 9.11,-7.27 14.84,-7.27 1.34,0 2.7,0.15 4.03,0.44 15.03,3.3 29.99,6.56 44.99,9.66 3.96,0.81 7.46,2.87 10.09,5.74 3.89,4.2 27.39,30.96 43.38,78.71 -0.54,-69.26 -1.58,-110.7 -2.48,-128.5 -14.42,-5.48 -28.81,-11.03 -43.2,-16.68 -5.75,-2.26 -10.03,-7.18 -11.45,-13.18 l -5.37,-22.79 c -1.16,-4.86 -0.34,-9.98 2.29,-14.24 2.64,-4.25 6.86,-7.29 11.72,-8.43 11.75,-2.76 24.2,-5.54 36.78,-8.34 23.63,-5.29 48.05,-10.75 68.09,-16.06 33.51,-10.07 67.31,-20.71 100.98,-31.78 34.32,-10.19 71.39,-21.56 113.73,-38.3 4.44,-1.76 9.33,-1.76 13.7,-0.06 3.2,-2.29 7.04,-3.51 10.96,-3.51 1.6,0 3.22,0.21 4.82,0.63 8.3,2.19 15.46,3.82 22.73,5.49 6.41,1.45 12.91,2.94 20.22,4.79 7.5,1.9 13.06,8.2 14.04,15.86 l 17.17,135.85 c 0.75,5.96 -1.39,11.93 -5.79,16.07 l -19.02,17.84 c -3.49,3.25 -8.83,5.06 -13.6,5.06 -3.97,0 -7.24,0.33 -10.52,0.63 -4.33,0.41 -8.64,0.8 -13.75,0.8 l -2.22,-0.02 c -4.77,-0.1 -9.22,-1.99 -12.56,-5.17 -6.58,2.51 -14.26,1.26 -19.68,-3.85 -10.92,-10.28 -23.9,-25.94 -37.72,-44.09 -0.69,0.39 -1.43,0.73 -2.18,1.03 -29.57,11.77 -56.52,21.61 -85.03,32.03 l -5.52,2.02 c -0.6,22.82 -1.11,44.81 -1.61,66.78 -0.52,22.06 -1,44.15 -1.63,67.14 20.3,-7.92 41.32,-16.36 55.22,-21.94 10.7,-4.28 18.35,-7.35 21.38,-8.43 3.37,-1.05 7.94,-1.24 11.59,-0.34 0.69,-0.97 1.52,-1.88 2.42,-2.72 3.86,-3.56 9.09,-5.38 14.28,-4.91 8.16,0.67 16.28,1.3 24.39,1.89 5.95,0.45 11.36,3.7 14.54,8.74 l 24.53,38.75 c 4.76,7.55 3.54,17.4 -2.91,23.6 -3.23,3.09 -5.65,5.77 -8.09,8.43 -3.04,3.31 -6.05,6.59 -10.08,10.43 -3.69,3.52 -9.17,5.32 -13.36,5.2 -1.72,2.22 -3.91,4.03 -6.42,5.29 0.01,6.32 -3.17,12.44 -8.8,15.98 -9.24,5.82 -18.52,11.59 -28.28,17.66 -1.41,0.88 -2.94,1.56 -4.53,2.04 -26.89,8.07 -54.73,16.1 -82.94,23.89 -0.68,23.88 -1.44,47.15 -2.19,70.4 -0.81,24.64 -1.61,49.28 -2.33,74.65 18.53,-3.97 36.93,-8.06 55.09,-12.24 l 5.83,-15.93 c 10.93,-29.97 25.92,-71.05 32.32,-87.22 2.42,-6.1 7.77,-10.33 13.91,-11.53 0.95,-2.96 2.61,-5.69 4.94,-7.93 3.99,-3.82 7,-6.84 10.04,-9.92 2.91,-2.95 5.87,-5.95 9.72,-9.65 3.81,-3.71 9.05,-5.55 14.41,-5.25 5.07,0.37 10.14,0.67 15.17,0.96 8.74,0.5 15.99,6.97 17.46,15.6 3.66,21.27 16.78,131.12 17.34,135.78 0.62,5.21 -0.97,10.45 -4.38,14.45 -3.95,4.63 -7.04,8.58 -10.12,12.52 -3.53,4.46 -7,8.91 -11.53,14.16 -3.79,4.44 -9.74,6.91 -15.03,6.54 l -1.09,2.28 c -2.3,4.98 -6.67,8.72 -11.95,10.2 -16.29,4.58 -59.22,10.24 -71.92,11.43 -54.25,16.76 -109.13,32.39 -163.17,46.42 -14.08,3.64 -24.17,7.14 -34.86,10.83 -12.03,4.16 -24.49,8.47 -42.26,12.75 -9.88,2.37 -19.95,-3.59 -22.59,-13.47 l -6.02,-22.71 c -1.93,-7.29 0.69,-15.02 6.65,-19.65 16.73,-13.03 33.42,-26.2 50.1,-39.46 l 0,-126.25 c -6.32,19.77 -12.99,32.83 -16.31,38.59 -32.89,63.87 -87.53,96.2 -108.86,96.35 -0.06,0 -0.1,0 -0.15,0 -3.38,0 -6.58,-0.9 -9.34,-2.48 -23.53,12.4 -50.22,21.63 -79.98,27.52 -36.28,7.01 -74.43,11.05 -114.74,12.07 -5.42,0.08 -10.2,-2.2 -13.71,-5.77 -0.75,0.81 -1.45,1.57 -2.29,2.44 -3.11,3.25 -7.19,5.2 -11.49,5.69 -2.85,4.57 -7.62,7.89 -13.34,8.69 -11.68,1.65 -23.75,3.09 -35.82,4.51 l -20.28,2.45 c -6.11,0.77 -12.2,1.65 -18.32,2.52 -8.13,1.15 -16.27,2.31 -24.4,3.25 -9.93,1.22 -18.9,-5.56 -20.69,-15.31 l -3.13,-17.27 c -1.25,-7.01 1.57,-14.11 7.26,-18.36 8.08,-6.04 16.14,-12.1 24.21,-18.18 1.68,-51.66 2.66,-115.2 3.05,-198.93 0.36,-26.73 -3.32,-45.02 -7.49,-56.96 -6.53,2.43 -13.7,1.03 -18.79,-3.32 -0.99,-0.63 -6.08,-3.56 -16.6,-3.56 -5.01,0 -10.53,0.68 -16.39,2 -25.45,5.78 -30.28,62.42 -28.59,90.13 0,27.37 0.83,62.5 1.65,96.47 0.71,30.5 1.46,61.92 1.61,88.11 4.23,3.26 8.48,6.49 12.73,9.71 3.76,2.83 6.3,7 7.16,11.64 l 4.11,22.24 c 0.94,5 -0.19,10.18 -3.11,14.32 l -8.99,12.7 c -3.85,5.38 -10.18,8.27 -16.6,7.82 -3.15,3.37 -7.45,5.5 -12.09,5.92 -13.61,1.21 -27.41,2.12 -41.29,3.05 l -40.3,2.97 c -14.39,1.16 -28.84,2.34 -43.09,3.15 -3.29,0.16 -6.35,-0.75 -9.16,-2.1 l -3.34,3.61 c -2.1,2.33 -4.2,4.65 -7.16,7.81 -3.02,3.23 -7.1,5.27 -11.44,5.82 -3.5,5.57 -9.68,8.82 -16.26,8.82 -10.55,-0.18 -30.07,-3.58 -45.35,-6.58 -60.21,1.76 -120.58,2.1 -180.47,0.99 -30.86,7.17 -38.9,7.09 -43.2,7.15 -4.61,-0.16 -9.01,-2.02 -12.34,-5.21 l -3.03,-2.92 c -3.14,-2.96 -5.16,-6.89 -5.73,-11.13 -0.33,-2.36 -0.62,-5.68 -0.9,-9.65 l -15.23,6.99 c -3.19,1.45 -6.71,1.98 -10.14,1.54 -0.02,0.03 -0.05,0.04 -0.06,0.07 -3.77,4.49 -9.37,6.99 -15.23,6.73 -14.84,-0.66 -29.67,-1.65 -44.49,-2.67 l -21.32,-1.39 c -7.29,-0.46 -14.53,-0.86 -21.78,-1.24 -12.73,-0.69 -25.5,-1.36 -38.594,-2.38 -8.152,-0.62 -14.981,-6.45 -16.883,-14.42 l -3.965,-16.67 c -1.992,-8.26 1.805,-16.83 9.266,-20.91 7.598,-4.16 15.207,-8.38 22.796,-12.61 0.42,-23.82 1.96,-53.78 3.47,-82.89 1.74,-33.39 3.53,-67.91 3.53,-92.11 0,-104.84 -1.03,-140.96 -1.63,-152.94 -3.81,-2.79 -7.62,-5.59 -11.43,-8.37 2.54,23.84 4.7,50.15 4.7,51.86 0,5.85 -2.72,11.39 -7.362,14.94 -3.105,2.38 -5.91,3.11 -8.605,3.84 -2.325,0.61 -7.118,1.88 -10,3.38 -2.364,1.24 -4.922,1.93 -7.508,2.09 -1.211,1.07 -2.61,1.98 -4.102,2.73 l -7.91,3.9 c -8.418,4.19 -18.644,1.54 -23.945,-6.22 -6.914,-10.12 -19.766,-33.99 -31.035,-55.63 -1.836,0.65 -3.789,1.03 -5.793,1.09 -11.758,0.37 -19.11,0.56 -27.45,0.71 -0.011,39.23 0.489,83.14 0.985,125.78 0.547,46.27 1.086,93.96 0.988,135.89 8.457,5.35 16.895,10.68 25.371,16.01 3.836,2.4 6.68,6.1 7.996,10.42 1.633,5.34 2.903,9.79 4.172,14.23 1.199,4.29 2.403,8.57 3.985,13.73 2.918,9.43 -1.946,19.48 -11.145,23.06 l -21.59,8.37 c -3.613,1.39 -7.519,1.65 -11.242,0.75 -3.895,3.16 -8.984,4.64 -13.992,4.03 -14.043,-1.65 -28.254,-3.66 -42.403,-5.66 l -43.613,-5.88 c -13.976,-1.81 -27.844,-3.59 -41.711,-5.67 -7.605,-1.16 -13.758,-6.83 -15.508,-14.33 l -3.984,-16.97 c -2.078,-8.84 2.422,-17.91 10.734,-21.55 8.036,-3.55 16.063,-7.12 24.09,-10.71 -0.203,-22.21 -0.925,-48.67 -1.609,-74.4 -0.109,-4 -0.207,-8.02 -0.332,-12.04 -18,80.99 -77.258,112.63 -96.055,118.43 l 0.106,0.37 c -15.301,4.16 -30.645,6.26 -45.614,6.26 -45.976,0 -75.703,-19.87 -81.601,-24.17 -3.477,-2.47 -5.899,-5.93 -7.07,-9.77 -73.965,-32.98 -141.329,-126.24 -141.887,-249.4 -28.035,38.25 -66.356,50.38 -86.992,56.83 -2.997,0.94 -5.672,1.76 -7.95,2.59 -3.171,1.12 -8.464,2.42 -15.117,3.97 -5.613,1.31 -13.054,3.02 -20.996,5.32 l -21.726,7.63"
         inkscape:connector-curvature="0"
         id="path242"
         style="fill:#231f20;fill-opacity:1;fill-rule:nonzero;stroke:none" /><path
         d="m 1126.79,2544.9 c -0.49,87.93 -8.06,214.07 -8.6,301.99 11.44,6.37 22.91,12.78 34.38,19.1 3.22,10.26 5,15.96 8.26,26.24 -7.23,3.32 -14.47,6.66 -21.68,9.95 -2,-6.95 -2.53,-9.38 -4.52,-16.32 -10.7,-7.64 -21.41,-15.36 -32.09,-23.09 0.95,-98.69 9.07,-235.57 10.05,-334.24 13.7,-6.5 27.42,-13.06 41.08,-19.73 -1.49,-6.6 -2.97,-13.19 -4.48,-19.8 8.73,5.92 17.44,11.79 26.19,17.64 1.21,4.62 2.47,9.25 3.71,13.85 -17.46,8.3 -34.88,16.41 -52.3,24.41 z m -29,-24.17 c 12.91,-6.35 25.82,-12.78 38.73,-19.23 -1.17,-5.5 -2.36,-11.01 -3.56,-16.52 -23.16,-1.02 -46.77,-1.06 -70.32,-2.56 -23.14,-1.43 -46.3,-4.26 -69.402,-6.1 1.18,5.54 2.352,11.09 3.535,16.65 10.977,8.1 21.937,16.13 32.917,24.11 1.78,6.54 2.68,66.26 2.68,163.28 0,49.35 -7.1,136.79 -7.1,186.12 -10.85,6.02 -21.66,12.07 -32.481,18 1.328,5.57 2.664,11.14 3.992,16.73 20.459,1.58 40.069,2.36 60.089,3.59 21.8,1.35 43.64,3.1 65.45,4.04 -1.22,-5.48 -2.37,-11.01 -3.61,-16.48 -10.07,-7.32 -20.15,-14.64 -30.26,-21.96 0,-49.35 7.1,-136.79 7.1,-186.1 0,-97.66 1.33,-157.21 2.24,-163.57"
         inkscape:connector-curvature="0"
         id="path244"
         style="fill:#612490;fill-opacity:1;fill-rule:nonzero;stroke:none" /><path
         d="m 970.551,2576.37 c -3.75,-56.24 -12.168,-101.25 -12.168,-101.25 8.203,6.97 11.594,9.69 19.785,16.61 3.73,22.88 8.203,79.17 8.203,79.18 -0.437,0.34 -9.363,2.11 -15.82,5.46 z M 838.57,2505.8 c 21.817,0.14 31.973,0.36 53.809,0.09 1.98,5.44 3.984,10.87 5.976,16.34 -19.121,0.58 -26.515,0.7 -45.644,1.06 -0.461,87.87 2.371,202.54 1.883,290.45 11.426,7.24 22.793,14.44 34.238,21.61 3.223,10.49 4.934,17.47 8.176,27.98 -7.207,2.81 -14.395,5.57 -21.582,8.37 -1.992,-7.11 -2.481,-10.68 -4.453,-17.8 -10.676,-8.42 -21.348,-16.9 -31.993,-25.38 0.977,-98.69 -1.378,-224.06 -0.41,-322.72 z m 120.742,75.2 c -0.421,-17 -12.011,-95.8 -16.027,-110.23 -16.394,-1.89 -41.347,-1.22 -153.476,-15.9 -22.547,-3.05 -44.688,-6.83 -70.77,-10.87 1.172,5.62 2.324,11.27 3.523,16.94 11.926,8.84 23.887,17.64 35.813,26.37 0.926,4.81 1.797,72.74 1.766,163.98 0,49.09 3.351,125 3.351,174.1 -11.777,5.3 -23.566,10.57 -35.383,15.77 1.348,5.72 2.649,11.32 3.985,17.02 20.82,3.15 41.601,5.57 62.824,8.42 21.27,2.87 42.977,6.21 64.285,8.72 -1.348,-5.8 -2.644,-11.62 -4.012,-17.42 -9.582,-7.98 -19.171,-15.97 -28.769,-23.98 0,-48.95 -3.36,-124.66 -3.36,-173.58 0,-92.91 0.879,-150.11 1.747,-168.12 25.851,0.93 51.73,1.56 77.636,1.92 12.442,24.78 38.625,75.86 48.86,90.81 2.664,-1.34 5.34,-2.64 8.007,-3.95"
         inkscape:connector-curvature="0"
         id="path246"
         style="fill:#612490;fill-opacity:1;fill-rule:nonzero;stroke:none" /><path
         d="m 1371.06,2876.97 c -3.47,-0.57 -6.98,-1.19 -10.45,-1.77 0.99,-98.76 2,-239.03 2.99,-337.77 17.98,-8.47 35.86,-17.1 53.81,-25.81 -1.47,-7.16 -3.53,-12.73 -5.03,-19.87 9.7,5.6 15.34,9.63 25.06,15.16 0.76,5.52 2.05,9.48 2.8,15 -22.15,9.66 -40.26,20.69 -62.44,29.94 -2.24,94.54 -4.47,230.59 -6.74,325.12 z m 96.1,35.19 c 0,0.63 -16.68,-103.81 -16.68,-103.81 5.5,-4.12 8.42,-6.93 13.92,-11.07 6.21,35.38 10.52,64.32 16.75,99.68 -5.75,6.15 -8.23,9.05 -13.99,15.2 z m -196.73,-48.7 c 0.29,4.25 0.5,8.51 0.76,12.76 -15.47,0.88 -23.39,1.38 -38.84,2.09 -10.69,-21.14 -17.22,-34.62 -27.92,-55.86 0.62,1.27 26.27,14.74 26.27,15.37 5.72,9.6 9.37,16.39 15.09,25.93 10.73,-0.16 13.93,-0.02 24.64,-0.29 z m 185.29,53.79 c -2.22,-22.74 -12.04,-89.59 -15.58,-103.46 -2.53,-1.27 -5.07,-2.52 -7.59,-3.84 -3.98,14.2 -18.26,53.85 -24.5,79.73 -20.97,-0.91 -41.86,-2.04 -62.81,-3.31 0,-47.19 0,-135.81 0,-182.96 0,-148.53 1.81,-163.18 2.67,-177.18 17.38,-7.44 34.74,-15.07 52.12,-22.73 -1.34,-5.43 -2.7,-10.84 -3.99,-16.25 -26.74,0.71 -53.44,1.68 -80.19,1.83 -27.66,0.15 -55.69,-0.62 -83.81,-1.09 1.22,5.66 2.41,11.35 3.58,17.01 15.15,7.27 30.3,14.43 45.46,21.5 0.88,16.97 0.91,37.99 0.87,158.44 0.01,53.42 0.01,148.29 0,201.7 -19.44,1.46 -38.89,2.8 -58.34,4 -8.92,-20.05 -26.74,-57.29 -37,-74.6 -2.66,-1 -5.35,-2.06 -8.01,-3.16 -0.44,19.87 0.87,90.11 3.11,106.53 1.05,0.98 2.1,2.03 3.13,3.01 7.99,0.29 31.17,-4.99 40.54,-7.2 61.34,1.18 122.71,0.83 184.02,-1.01 12.94,2.57 34.28,6.48 44.1,6.64 0.72,-1.2 1.5,-2.43 2.22,-3.6"
         inkscape:connector-curvature="0"
         id="path248"
         style="fill:#612490;fill-opacity:1;fill-rule:nonzero;stroke:none" /><path
         d="m 600.141,2499.29 c 0,0 -0.711,-24.24 -21.114,-42.08 -1.375,-0.11 -10.449,-6 -13.445,-7.06 -28.262,-11.29 -61.172,-3.83 -78.781,60.55 -26.192,95.95 0.781,184.11 8.144,204.39 7.375,20.27 20.274,44.71 37.453,53.45 -0.011,0.13 -70.878,-126.12 -26.437,-263.91 0,-0.03 0,-0.03 0,-0.03 0.031,-0.01 8.867,-28.06 32.375,-33.27 17.215,-2.17 31.355,1.72 61.805,27.96 z m 82.765,-13.18 c -0.031,0.04 36.856,43.44 37.715,155.91 2.52,157.49 -107.141,177.36 -107.062,176.9 0,0 -42.383,11.63 -83.164,-6.57 0.019,-0.07 42.734,33.7 111.398,15.1 -0.051,0.28 85.652,-29.73 87.422,-146.68 5.976,-144.24 -46.34,-194.56 -46.309,-194.66 z m -128.379,-58.56 c -62.004,-12.52 -94.816,75.49 -94.836,166.18 0.02,91.75 26.739,179.44 82.493,190.93 0.175,0.05 0.312,0.06 0.449,0.09 63.301,12.84 92.898,-91.1 92.89,-165.23 0.028,-73.79 -16.796,-179.19 -80.996,-191.97 z m -5.722,382.41 c -0.157,-0.04 -0.274,-0.07 -0.45,-0.08 -80.031,-16.03 -159.035,-114.79 -159.023,-242.84 -0.031,-137.28 87.344,-178.31 159.023,-164.08 74.688,15.4 159.54,92.6 158.25,237.88 -1.796,140.8 -91.902,182.87 -157.8,169.12"
         inkscape:connector-curvature="0"
         id="path250"
         style="fill:#612490;fill-opacity:1;fill-rule:nonzero;stroke:none" /><path
         d="m 1605.76,2605.11 c -0.02,-15.85 7.25,-88.85 74.12,-90.25 30.12,2.56 32.22,18.73 32.67,19.86 0,-0.06 -14.71,-13.45 -49.37,-5.59 -49.7,11.3 -43.22,108.42 -43.22,108.48 0,55.2 3.28,138.65 3.28,193.88 6.7,5.15 13.43,10.3 20.15,15.4 1.35,7.47 2.76,14.91 4.15,22.36 -2.96,4.21 -5.91,8.41 -8.91,12.6 -1.15,-7.48 -2.35,-14.94 -3.58,-22.42 -7.84,-5.29 -15.75,-10.61 -23.66,-15.98 0,0.02 -5.63,-222.66 -5.63,-238.34 z m 220.23,232.14 c -0.76,-6.56 -1.56,-13.09 -2.36,-19.64 -13.15,-5.54 -26.21,-11.17 -39.33,-16.88 0,0.02 -2.32,-122.2 -5.38,-216.04 -3,-93.72 -50.23,-117.39 -50.23,-117.48 52.07,18.44 63.42,78.83 65.24,113.01 1.81,34.08 5.07,203.99 5.09,203.99 15.14,4.85 23.97,10.74 39.08,15.39 1.02,7.6 1.54,14.2 2.57,21.79 -5.68,5.9 -9.02,9.97 -14.68,15.86 z m -175.04,-377.36 c -42.63,4.27 -88.43,25.31 -110.68,80.01 -9.37,22.8 -12.01,48.73 -12.01,77.97 0,86.51 3.28,184.71 2.37,240.3 -11.86,7.61 -23.75,15.17 -35.61,22.63 1.5,5.4 2.93,10.75 4.47,16.12 20.93,-1.19 42.28,-3.16 63.17,-4.74 20.48,-1.47 40.89,-2.6 60.9,-4.39 -1.16,-5.72 -2.33,-11.48 -3.56,-17.2 -8.26,-5.89 -16.6,-11.82 -24.88,-17.76 -0.42,-63.71 -3.7,-165.39 -3.7,-243.72 0,-29.24 3.56,-48.84 11.1,-64.66 12.02,-25.02 33.33,-42.06 63.97,-45.23 27.97,-2.86 50.59,9.7 64.36,33.18 8.84,16.51 15.07,41.44 14.59,77.16 -0.42,90.69 -1.53,156.63 -3.35,208.3 -10.48,7.92 -20.97,15.8 -31.45,23.64 1.02,5.72 2.07,11.48 3.11,17.18 14.17,-1.65 28.36,-3.95 42.53,-5.75 18.6,-2.33 37.69,-4.36 55.83,-6.92 -0.58,-5.8 -1.2,-11.52 -1.78,-17.3 -12.38,-5.25 -24.8,-10.59 -37.2,-15.95 -1.33,-10.37 -1.5,-31.12 -4.17,-205.03 -0.43,-33.83 -4.43,-65.46 -17.29,-91.33 -18.16,-38.63 -54.96,-61.02 -100.72,-56.51"
         inkscape:connector-curvature="0"
         id="path252"
         style="fill:#612490;fill-opacity:1;fill-rule:nonzero;stroke:none" /><path
         d="m 2451.99,2647.6 c 7.85,-7.52 11.97,-12.07 19.82,-19.66 5.16,0.36 10.32,0.67 15.44,0.97 3.61,21.04 17.2,134.82 17.2,134.82 -8.43,9.86 -13.14,16.78 -21.61,26.64 -4.52,-67.57 -15.4,-137.98 -15.43,-137.98 -5.14,-1.61 -10.3,-3.18 -15.42,-4.79 z m 4.39,-165.05 c 8.16,12.94 16.4,25.81 24.51,38.72 -7.22,6.93 -10.88,11.92 -18.12,18.83 1.24,-5.77 2.42,-11.49 3.6,-17.27 -9.05,-16.69 -34.54,-42.18 -34.54,-42.19 8.2,0.67 16.39,1.31 24.55,1.91 z m 65.29,-118.44 c -10.26,-0.09 -16.6,1.63 -26.87,1.41 4.85,-6.19 9.68,-12.37 14.55,-18.53 0,0 -16.34,-104.18 -29.02,-146.84 15.71,4.15 27.46,6.35 43.14,10.33 5.76,45.28 11.46,90.54 17.18,135.82 -6.33,5.94 -12.64,11.88 -18.98,17.81 z m -212.29,146.08 c -4.27,1.63 -8.52,3.21 -12.83,4.83 0.91,-66.06 1.14,-126.37 2.06,-192.45 32.69,-12.04 61.39,-22.27 93.91,-35.23 7.59,9.16 15.2,18.3 22.8,27.43 -35.26,14.02 -66.64,25.25 -102.05,38.24 -1.54,54.29 -2.38,102.87 -3.89,157.18 z m -1.53,267.64 c -3.95,0.71 -7.94,1.41 -11.9,2.11 0.28,-61.37 1.17,-118.47 1.45,-179.86 46.76,-11 93.36,-22.93 139.75,-35.81 -9.39,5.91 -18.83,11.78 -28.2,17.6 -31.91,9.58 -63.91,18.71 -95.95,27.45 -1.56,57.57 -3.6,110.93 -5.15,168.51 z M 2488.2,2349.1 c -0.66,-15.77 -19.03,-128.3 -25.61,-146.71 -41.34,16.37 -76.96,27.47 -115.29,38.84 -33.58,11.06 -67.22,21.65 -100.93,31.77 -31.92,8.49 -71.91,16.72 -105.98,24.7 1.8,7.6 3.58,15.21 5.38,22.8 17.98,7.06 35.99,13.98 54.02,20.77 1.98,9.31 3.98,98.06 3.98,248.86 0,75.59 0,151.17 0,226.73 -19.1,15.21 -38.21,30.33 -57.36,45.23 2,7.57 4,15.12 6.02,22.69 32.01,-7.69 45.49,-15.39 76.78,-23.49 54.99,-14.28 109.75,-29.89 164.31,-46.8 7.25,-0.38 54.69,-6.53 70.39,-10.95 0.66,-1.4 1.34,-2.85 1.99,-4.26 -0.65,-22.98 -11.17,-114.08 -15.76,-136.68 -4.18,-0.71 -8.35,-1.44 -12.51,-2.21 -8.53,21.53 -32.94,89.08 -41.47,112.22 -38.71,9.05 -77.53,17.44 -116.44,25.2 0,-70.83 0,-141.64 0,-212.4 57.09,-15.6 124.41,-29.05 167.78,-38 1.28,-4 2.64,-8 3.92,-11.96 -1.92,-10.05 -31.54,-50.47 -40.79,-47.63 -8.49,3.09 -104.34,42.54 -130.91,50.25 0,-52.67 0.02,-160.63 2.64,-229.21 39.14,-14.07 78.17,-28.81 117.08,-44.21 23.74,33.68 54.65,77.22 75.61,96.96 4.41,-4.18 8.78,-8.33 13.15,-12.51"
         inkscape:connector-curvature="0"
         id="path254"
         style="fill:#612490;fill-opacity:1;fill-rule:nonzero;stroke:none" /><path
         d="m 2180.53,2565.4 c -4.09,-97.28 -53.22,-148.17 -53.23,-148.22 -15.07,-3.12 -30.11,-6.4 -45.21,-9.71 0.04,0.09 53.78,22.83 76.94,99.12 13.09,49.01 14.07,116.36 -8.15,179.3 -33.34,94.75 -91.24,111.88 -91.24,111.77 11.66,-0.07 61.53,-26.45 92.29,-86.14 7.34,-12.84 32.05,-63 28.6,-146.12 z m -143.89,-91.89 c -27.6,-22.45 -69.86,-21.41 -69.86,-21.48 0,0 -2.07,57.87 -2.07,108.08 0,50.2 -0.2,220.57 -0.2,220.57 36.87,-6.4 49.41,-23.1 50.97,-27.89 -18.74,7.26 -40.74,9.16 -40.74,9.18 0,0 0.82,-44.95 0.22,-97.54 -0.63,-52.59 3.21,-182.63 3.24,-182.63 12.94,-10.98 52.83,-8 58.44,-8.29 z m 11.94,-8.41 c -25.48,-28.14 -63.74,-31.34 -96.39,-25.23 -1.74,9.56 -1.74,86.13 -1.74,187.81 0,56.96 0,113.94 0,170.91 38.37,-7.24 68.69,-21.48 95.94,-59.83 29.88,-41.4 39.52,-95.77 39.52,-142.31 0,-63.08 -13.6,-104.66 -37.33,-131.35 z m 106.09,119.87 c -0.08,116.48 -51.83,211.21 -187.92,238.06 -55.5,10.74 -102.38,11.49 -111.67,11.73 -0.88,-4.94 -1.77,-9.94 -2.66,-14.87 11.81,-7.6 23.59,-15.28 35.37,-22.96 0,-52.69 0,-105.39 0,-158.07 0,-102.29 -0.87,-161.54 -2.66,-172.92 -10.89,-4.65 -21.8,-9.39 -32.71,-14.2 -1.15,-5.53 -2.34,-11.09 -3.51,-16.6 15.91,-3.11 47.72,-9.57 75.06,-14.55 62.23,-11.26 99.6,-15.61 133.4,-5.18 43.06,12.13 97.31,52.03 97.3,169.56"
         inkscape:connector-curvature="0"
         id="path256"
         style="fill:#612490;fill-opacity:1;fill-rule:nonzero;stroke:none" /><path
         d="m 228.668,2309.35 c -0.02,0.06 -52.988,-30.8 -82.422,-27.07 -7.793,39.69 -15.578,79.33 -23.312,118.95 0,0.02 -14.364,-9.11 -20.508,-16.19 9.015,-40.25 16.621,-80.33 25.636,-120.68 0,0 43.876,-15.04 100.606,44.99 z m 155.723,164.3 c -11.602,114.47 -88.645,127.11 -115.11,136.56 -18.386,6.55 -120.918,17.25 -95.293,86.67 16.282,45.11 75.696,77.45 75.723,77.28 -24.453,-6.8 -82.137,-24.96 -96.004,-80.49 -19.875,-79.55 83.633,-87.68 107.871,-98.26 24.246,-10.59 76.445,-25.32 96.113,-99.32 13.555,-57.92 5.215,-112.98 -15.089,-158.33 -9.637,-18.3 -24.129,-38.68 -35.274,-53.45 -0.691,-0.72 -1.308,-1.47 -1.941,-2.18 -0.051,0.02 0.183,0.17 0.554,0.39 -8.457,-11.1 -14.597,-18.57 -14.597,-18.57 40.144,32.21 105.918,81.69 93.047,209.7 z m -37.52,-35.97 c 0.008,54.2 -13.82,102.04 -80.93,132.28 -42.304,17.73 -75.339,30.3 -96.699,39.39 -22.664,10.42 -38.183,28.08 -38.183,61.43 0,55.21 34.199,101.62 79.621,115.34 22.754,6.83 39.023,3.66 47.468,-0.95 5.207,-22.18 23.457,-72.24 32.571,-88.15 3.914,3.42 7.812,6.85 11.738,10.28 11.074,42.5 24.129,135.46 24.141,152.99 -3.477,1.14 -6.973,2.23 -10.45,3.36 -19.57,-14.05 -41.074,-30.62 -50.207,-42 -12.996,9.42 -38.379,12.63 -66.914,3.91 -0.222,-0.06 -0.449,-0.15 -0.644,-0.19 -94.676,-29.15 -146.5627,-129.9 -147.2268,-220.29 0.0118,-67.58 23.0782,-103.04 68.2738,-124.06 32.918,-15.5 60.144,-26.15 95.828,-41.71 24.023,-10.35 40.937,-30.93 40.937,-69.51 0.012,-61.47 -33.222,-104.92 -86.316,-122.46 -31.758,-10.88 -53.684,-6.81 -57.551,-4.61 -11.609,62.8 -24.5116,116.35 -28.3866,127.28 -3.2031,-3.44 -6.4062,-6.85 -9.6406,-10.32 -9.0039,-18.87 -31.5117,-104.83 -36.6602,-138.26 14.1211,-8.89 76.4844,-32.57 140.0114,-12.89 69.207,22.11 169.129,89.89 169.219,229.14 z m -28.059,278.43 c 0,0.02 18.575,58.29 26.028,153.48 9.5,4.71 15.898,9 25.41,13.64 -0.012,-0.01 -3.516,-45.88 -7.461,-73.5 -3.957,-27.6 -13.652,-70.14 -13.652,-70.12 -11.145,-7.93 -19.18,-15.47 -30.325,-23.5"
         inkscape:connector-curvature="0"
         id="path258"
         style="fill:#612490;fill-opacity:1;fill-rule:nonzero;stroke:none" /></g></g></svg>